<svg xmlns="http://www.w3.org/2000/svg" xmlns:xlink="http://www.w3.org/1999/xlink" width="78" height="97.531" viewBox="0 0 78 97.531"><defs><style>.a{fill:#f92d2d;}.b{fill:#fff;}.c{filter:url(#a);}</style><filter id="a" x="0" y="0" width="78" height="97.531" filterUnits="userSpaceOnUse"><feOffset input="SourceAlpha"/><feGaussianBlur stdDeviation="3" result="b"/><feFlood flood-opacity="0.161"/><feComposite operator="in" in2="b"/><feComposite in="SourceGraphic"/></filter></defs><g transform="translate(-1269.5 -789)"><g transform="translate(1273.834 798)"><g class="c" transform="matrix(1, 0, 0, 1, -4.33, -9)"><path class="a" d="M34.666,0a30.033,30.033,0,0,0-30,30c0,23.815,26.781,47.74,27.922,48.748a3.139,3.139,0,0,0,4.219-.061C37.944,77.622,64.666,52.382,64.666,30A30.037,30.037,0,0,0,34.666,0Zm0,44.3A14.3,14.3,0,1,1,48.965,30,14.3,14.3,0,0,1,34.666,44.3Z" transform="translate(4.33 9)"/></g></g><circle class="b" cx="22" cy="22" r="22" transform="translate(1287 807)"/><g transform="translate(1296.106 811.771)"><path class="a" d="M25.124,14.06A.8.8,0,0,0,25.069,14l-.939-.906c.778-.177,1.616-.829,1.616-1.5,0-.78-1.082-1.056-2.005-1.056-.965,0-1.077.661-1.089,1.129L20.231,9.333a3.418,3.418,0,0,0-2.123-.87H8.674a3.419,3.419,0,0,0-2.122.87L4.131,11.668c-.013-.467-.125-1.129-1.089-1.129-.924,0-2.006.277-2.006,1.056,0,.669.839,1.321,1.617,1.5L1.715,14c-.021.02-.036.04-.055.061A5.258,5.258,0,0,0,0,17.665V21.1A3.131,3.131,0,0,0,.859,23.25v1.331a1.435,1.435,0,0,0,1.453,1.413H4.069a1.434,1.434,0,0,0,1.452-1.413V24.24h15.74v.341a1.434,1.434,0,0,0,1.453,1.413h1.756a1.435,1.435,0,0,0,1.452-1.413V23.25a3.128,3.128,0,0,0,.859-2.153V17.665A5.252,5.252,0,0,0,25.124,14.06ZM7.441,10.371a2.421,2.421,0,0,1,1.233-.5H18.11a2.421,2.421,0,0,1,1.233.5l3.175,3.078H4.266ZM1.089,17.146a1.505,1.505,0,0,1,1.478-1.531c.816,0,3.483,1.566,3.483,2.411s-2.667.649-3.483.649A1.5,1.5,0,0,1,1.089,17.146Zm4.433,5.59H4.959l-1.67,0a3.175,3.175,0,0,1-1.022-.494,1.449,1.449,0,0,1-.277-.281,1.1,1.1,0,0,1-.155-.284,1.291,1.291,0,0,1,.221-1.127h2.85l1.9,2.181Zm11.968,0h-8.2a1.549,1.549,0,0,1-1.548-1.548H19.038A1.548,1.548,0,0,1,17.49,22.737Zm.36-2.6H8.934c-.929,0-1.684-1.146-1.684-2.559H19.533C19.533,18.988,18.779,20.133,17.85,20.133Zm7.1,1.548a1.107,1.107,0,0,1-.156.283,1.418,1.418,0,0,1-.277.281,3.147,3.147,0,0,1-1.022.494l-1.67,0H19.976l1.9-2.181h2.85A1.289,1.289,0,0,1,24.949,21.681Zm-.732-3.006c-.816,0-3.483.195-3.483-.649s2.667-2.411,3.483-2.411a1.531,1.531,0,0,1,0,3.06Z" transform="translate(0)"/></g></g></svg>