<svg xmlns="http://www.w3.org/2000/svg" xmlns:xlink="http://www.w3.org/1999/xlink" width="78" height="97.531" viewBox="0 0 78 97.531"><defs><style>.a{fill:#fec562;}.b{fill:#fff;}.c{filter:url(#a);}</style><filter id="a" x="0" y="0" width="78" height="97.531" filterUnits="userSpaceOnUse"><feOffset input="SourceAlpha"/><feGaussianBlur stdDeviation="3" result="b"/><feFlood flood-opacity="0.161"/><feComposite operator="in" in2="b"/><feComposite in="SourceGraphic"/></filter></defs><g transform="translate(-1146 -519.234)"><g transform="translate(1150.334 528.234)"><g class="c" transform="matrix(1, 0, 0, 1, -4.33, -9)"><path class="a" d="M34.666,0a30.033,30.033,0,0,0-30,30c0,23.815,26.781,47.74,27.922,48.748a3.139,3.139,0,0,0,4.219-.061C37.944,77.622,64.666,52.382,64.666,30A30.037,30.037,0,0,0,34.666,0Zm0,44.3A14.3,14.3,0,1,1,48.965,30,14.3,14.3,0,0,1,34.666,44.3Z" transform="translate(4.33 9)"/></g></g><circle class="b" cx="22" cy="22" r="22" transform="translate(1163 537)"/><g transform="translate(1123.663 547.318)"><path class="a" d="M58.1,0H53.5V1.369h3.614l1.369,4.107h1.437Z"/><path class="a" d="M138.03,214.792a4.732,4.732,0,0,0-.4-1.907h0a4.086,4.086,0,0,1-.2-2.505c.028-.128.071-.251.1-.378H128.94a4.939,4.939,0,0,1-.173,3.07,4.769,4.769,0,0,0,3.787,6.45v2.892h-3.422v1.369h8.214v-1.369h-3.422v-2.894A4.768,4.768,0,0,0,138.03,214.792Z" transform="translate(-71.525 -200.418)"/><path class="a" d="M107.914,122.738h2.45L109.447,120H106.9Z" transform="translate(-50.964 -114.524)"/><path class="a" d="M200.757,122.738,201.77,120H194.2l.917,2.738Z" transform="translate(-134.279 -114.524)"/><path class="a" d="M263.343,30a4.785,4.785,0,0,0-4.311,2.738h6.581l-2.043,5.494a5,5,0,0,0-.178.648,3.29,3.29,0,0,0-.054.7h.011a4.792,4.792,0,0,0,4.785-4.794A4.8,4.8,0,0,0,263.343,30Z" transform="translate(-196.153 -28.631)"/></g></g></svg>