<svg xmlns="http://www.w3.org/2000/svg" xmlns:xlink="http://www.w3.org/1999/xlink" width="78" height="97.531" viewBox="0 0 78 97.531"><defs><style>.a{fill:#0ba52f;}.b{fill:#fff;}.c{filter:url(#a);}</style><filter id="a" x="0" y="0" width="78" height="97.531" filterUnits="userSpaceOnUse"><feOffset input="SourceAlpha"/><feGaussianBlur stdDeviation="3" result="b"/><feFlood flood-opacity="0.161"/><feComposite operator="in" in2="b"/><feComposite in="SourceGraphic"/></filter></defs><g transform="translate(-1058.5 -668)"><g transform="translate(1062.834 677)"><g class="c" transform="matrix(1, 0, 0, 1, -4.33, -9)"><path class="a" d="M34.666,0a30.033,30.033,0,0,0-30,30c0,23.815,26.781,47.74,27.922,48.748a3.139,3.139,0,0,0,4.219-.061C37.944,77.622,64.666,52.382,64.666,30A30.037,30.037,0,0,0,34.666,0Zm0,44.3A14.3,14.3,0,1,1,48.965,30,14.3,14.3,0,0,1,34.666,44.3Z" transform="translate(4.33 9)"/></g></g><circle class="b" cx="22" cy="22" r="22" transform="translate(1076 686)"/><g transform="translate(1086 657)"><path class="a" d="M14.893,411H.667a.667.667,0,0,0-.667.667,2,2,0,0,0,2,2H13.559a2,2,0,0,0,2-2A.667.667,0,0,0,14.893,411Z" transform="translate(0 -353.551)"/><path class="a" d="M330.115,42.146a7.2,7.2,0,0,0-7.791,0,.667.667,0,0,0-.247.891l2.024,3.745h4.238l2.024-3.745a.667.667,0,0,0-.247-.891Z" transform="translate(-307.681)"/><path class="a" d="M379.5,201h3.334v2H379.5Z" transform="translate(-362.627 -152.887)"/><path class="a" d="M379.5,283a1.667,1.667,0,0,0,3.334,0v-7H379.5Z" transform="translate(-362.627 -224.553)"/><path class="a" d="M68.727,122.5a5.112,5.112,0,1,0,1.5,3.615A5.079,5.079,0,0,0,68.727,122.5Zm-6.13,4.911a.667.667,0,0,1-.471-1.138l3.143-3.143a.667.667,0,1,1,.943.943l-3.143,3.143A.665.665,0,0,1,62.6,127.408Zm5.5-1.453L64.955,129.1a.667.667,0,0,1-.943-.943l3.143-3.143a.667.667,0,1,1,.943.943Z" transform="translate(-57.333 -76.443)"/><path class="a" d="M7.78,61A7.778,7.778,0,0,0,3.428,75.226H7.78a6.446,6.446,0,1,1,6.446-6.446A6.446,6.446,0,0,1,7.78,75.226h4.351A7.778,7.778,0,0,0,7.78,61Z" transform="translate(0 -19.111)"/></g></g></svg>