<svg xmlns="http://www.w3.org/2000/svg" xmlns:xlink="http://www.w3.org/1999/xlink" width="78" height="97.531" viewBox="0 0 78 97.531"><defs><style>.a{fill:#177c87;}.b{fill:#fff;}.c{filter:url(#a);}</style><filter id="a" x="0" y="0" width="78" height="97.531" filterUnits="userSpaceOnUse"><feOffset input="SourceAlpha"/><feGaussianBlur stdDeviation="3" result="b"/><feFlood flood-opacity="0.161"/><feComposite operator="in" in2="b"/><feComposite in="SourceGraphic"/></filter></defs><g transform="translate(-1402 -692.734)"><g transform="translate(1406.334 701.734)"><g class="c" transform="matrix(1, 0, 0, 1, -4.33, -9)"><path class="a" d="M34.666,0a30.033,30.033,0,0,0-30,30c0,23.815,26.781,47.74,27.922,48.748a3.139,3.139,0,0,0,4.219-.061C37.944,77.622,64.666,52.382,64.666,30A30.037,30.037,0,0,0,34.666,0Zm0,44.3A14.3,14.3,0,1,1,48.965,30,14.3,14.3,0,0,1,34.666,44.3Z" transform="translate(4.33 9)"/></g></g><circle class="b" cx="22" cy="22" r="22" transform="translate(1419 710.5)"/><g transform="translate(1429.917 721.564)"><g transform="translate(1.37)"><path class="a" d="M48.715,18.6,40.139,10.02,30.119,0h-.783l-.16.406a7.184,7.184,0,0,0-.521,3.172A4.48,4.48,0,0,0,29.91,6.439l7.822,7.822,1.032-1.032L46,21.316a1.923,1.923,0,0,0,2.72-2.72Z" transform="translate(-28.636)"/></g><g transform="translate(0.153 12.45)"><g transform="translate(0)"><path class="a" d="M6.841,291.442.715,297.568a1.923,1.923,0,0,0,2.72,2.72l6.126-6.126Z" transform="translate(-0.153 -291.442)"/></g></g><g transform="translate(11.866 0.015)"><g transform="translate(0)"><path class="a" d="M283.577,3.987,280.1,7.462l-.907-.907,3.475-3.475-.907-.907-3.475,3.475-.907-.907,3.475-3.475-.907-.907-4.533,4.533a3.2,3.2,0,0,0-.932,2.073,1.847,1.847,0,0,1-.131.579L277.3,10.49a1.845,1.845,0,0,1,.579-.131,3.2,3.2,0,0,0,2.073-.932l4.533-4.533Z" transform="translate(-274.354 -0.361)"/></g></g></g></g></svg>