<svg xmlns="http://www.w3.org/2000/svg" xmlns:xlink="http://www.w3.org/1999/xlink" width="78" height="97.531" viewBox="0 0 78 97.531"><defs><style>.a{fill:#2097f2;}.b{fill:#fff;}.c{filter:url(#a);}</style><filter id="a" x="0" y="0" width="78" height="97.531" filterUnits="userSpaceOnUse"><feOffset input="SourceAlpha"/><feGaussianBlur stdDeviation="3" result="b"/><feFlood flood-opacity="0.161"/><feComposite operator="in" in2="b"/><feComposite in="SourceGraphic"/></filter></defs><g transform="translate(-1580.316 -749.234)"><g transform="translate(1584.65 758.234)"><g class="c" transform="matrix(1, 0, 0, 1, -4.33, -9)"><path class="a" d="M34.666,0a30.033,30.033,0,0,0-30,30c0,23.815,26.781,47.74,27.922,48.748a3.139,3.139,0,0,0,4.219-.061C37.944,77.622,64.666,52.382,64.666,30A30.037,30.037,0,0,0,34.666,0Zm0,44.3A14.3,14.3,0,1,1,48.965,30,14.3,14.3,0,0,1,34.666,44.3Z" transform="translate(4.33 9)"/></g></g><circle class="b" cx="22" cy="22" r="22" transform="translate(1597.316 767)"/><g transform="translate(1607.691 777.375)"><path class="a" d="M226,390h2.725v5.54H226Z" transform="translate(-215.737 -372.29)"/><path class="a" d="M121.023,23.251h3.4v-6.9h5.449v6.9H133.3V0H121.023Zm9.535-20.526h1.362V4.087h-1.362Zm0,2.725h1.362V6.812h-1.362Zm0,2.725h1.362V9.536h-1.362Zm0,2.725h1.362v1.362h-1.362Zm0,2.725h1.362v1.362h-1.362Zm-2.725-10.9H129.2V4.087h-1.362Zm0,2.725H129.2V6.812h-1.362Zm0,2.725H129.2V9.536h-1.362Zm0,2.725H129.2v1.362h-1.362Zm0,2.725H129.2v1.362h-1.362Zm-2.725-10.9h1.362V4.087h-1.362Zm0,2.725h1.362V6.812h-1.362Zm0,2.725h1.362V9.536h-1.362Zm0,2.725h1.362v1.362h-1.362Zm0,2.725h1.362v1.362h-1.362Zm-2.725-10.9h1.362V4.087h-1.362Zm0,2.725h1.362V6.812h-1.362Zm0,2.725h1.362V9.536h-1.362Zm0,2.725h1.362v1.362h-1.362Zm0,2.725h1.362v1.362h-1.362Z" transform="translate(-115.527)"/><path class="a" d="M420.637,120h4.149v17.8h-4.149Z" transform="translate(-401.535 -114.551)"/><path class="a" d="M0,120H4.132v17.8H0Z" transform="translate(0 -114.551)"/></g></g></svg>