<svg xmlns="http://www.w3.org/2000/svg" xmlns:xlink="http://www.w3.org/1999/xlink" width="78" height="97.531" viewBox="0 0 78 97.531"><defs><style>.a{fill:#f9a12d;}.b{fill:#fff;}.c{filter:url(#a);}</style><filter id="a" x="0" y="0" width="78" height="97.531" filterUnits="userSpaceOnUse"><feOffset input="SourceAlpha"/><feGaussianBlur stdDeviation="3" result="b"/><feFlood flood-opacity="0.161"/><feComposite operator="in" in2="b"/><feComposite in="SourceGraphic"/></filter></defs><g transform="translate(-1463 -519.234)"><g transform="translate(1467.334 528.234)"><g class="c" transform="matrix(1, 0, 0, 1, -4.33, -9)"><path class="a" d="M34.666,0a30.033,30.033,0,0,0-30,30c0,23.815,26.781,47.74,27.922,48.748a3.139,3.139,0,0,0,4.219-.061C37.944,77.622,64.666,52.382,64.666,30A30.037,30.037,0,0,0,34.666,0Zm0,44.3A14.3,14.3,0,1,1,48.965,30,14.3,14.3,0,0,1,34.666,44.3Z" transform="translate(4.33 9)"/></g></g><circle class="b" cx="22" cy="22" r="22" transform="translate(1480 537)"/><g transform="translate(1490 549)"><path class="a" d="M7.49,13.537H19.718a.675.675,0,0,0,.65-.491L23.076,3.57a.676.676,0,0,0-.651-.863H5.928L5.444.53A.677.677,0,0,0,4.783,0H.677a.677.677,0,1,0,0,1.354H4.24l2.444,11a2.029,2.029,0,0,0,.806,3.892H19.718a.677.677,0,1,0,0-1.354H7.49a.677.677,0,0,1,0-1.354Zm0,0" transform="translate(0 0)"/><path class="a" d="M151,362.034a2.031,2.031,0,1,0,2.031-2.03A2.033,2.033,0,0,0,151,362.034Zm0,0" transform="translate(-144.187 -343.76)"/><path class="a" d="M362,362.034a2.03,2.03,0,1,0,2.03-2.03A2.033,2.033,0,0,0,362,362.034Zm0,0" transform="translate(-345.67 -343.76)"/></g></g></svg>