<svg xmlns="http://www.w3.org/2000/svg" width="77.897" height="73.755" viewBox="0 0 77.897 73.755"><defs><style>.a{fill:#177c87;}.b{fill:#fec562;}</style></defs><g transform="translate(0 -9.155)"><g transform="translate(0 9.155)"><path class="a" d="M81.749,15.558a2.827,2.827,0,0,0-3.357,2.172l-2.055,9.589A36.76,36.76,0,0,0,7.868,45.913a2.828,2.828,0,1,0,5.655,0,31.106,31.106,0,0,1,58-15.621L62.1,28.272a2.828,2.828,0,0,0-1.185,5.53L77.1,37.269A2.828,2.828,0,0,0,80.454,35.1l3.468-16.182A2.829,2.829,0,0,0,81.749,15.558Z" transform="translate(-6.088 -9.155)"/><path class="b" d="M72.816,155.265a2.828,2.828,0,0,0-2.733,2.919A31.1,31.1,0,0,1,40.024,190.3c-.346.011-.69.017-1.035.017A31.1,31.1,0,0,1,12.538,175.57l9.828,2.635a2.828,2.828,0,0,0,1.465-5.463L7.846,168.457a2.828,2.828,0,0,0-3.463,2L.1,186.44A2.828,2.828,0,1,0,5.56,187.9l2.409-8.984a36.742,36.742,0,0,0,31.02,17.048c.406,0,.815-.007,1.223-.02A36.758,36.758,0,0,0,75.736,158,2.825,2.825,0,0,0,72.816,155.265Z" transform="translate(0 -122.213)"/></g></g></svg>