<svg xmlns="http://www.w3.org/2000/svg" xmlns:xlink="http://www.w3.org/1999/xlink" width="118" height="118" viewBox="0 0 118 118"><defs><style>.a{fill:#fec562;}.b{fill:#fff;}.c{filter:url(#a);}</style><filter id="a" x="0" y="0" width="118" height="118" filterUnits="userSpaceOnUse"><feOffset input="SourceAlpha"/><feGaussianBlur stdDeviation="3" result="b"/><feFlood flood-opacity="0.161"/><feComposite operator="in" in2="b"/><feComposite in="SourceGraphic"/></filter></defs><g transform="translate(-686 -2284)"><g class="c" transform="matrix(1, 0, 0, 1, 686, 2284)"><circle class="a" cx="50" cy="50" r="50" transform="translate(9 9)"/></g><g transform="translate(670.5 2316)"><path class="b" d="M64.168,0H53.5V3.175h8.382L65.057,12.7H68.39Z"/><path class="b" d="M150.675,221.113a10.973,10.973,0,0,0-.93-4.423l0,0a9.476,9.476,0,0,1-.468-5.81c.064-.3.165-.582.243-.876H129.593a11.454,11.454,0,0,1-.4,7.119,11.061,11.061,0,0,0,8.784,14.959v6.708h-7.937v3.175h19.05v-3.175H141.15v-6.712A11.058,11.058,0,0,0,150.675,221.113Z" transform="translate(-67.013 -187.776)"/><path class="b" d="M109.25,126.35h5.683L112.806,120H106.9Z" transform="translate(-47.75 -107.3)"/><path class="b" d="M209.408,126.35l2.349-6.35H194.2l2.127,6.35Z" transform="translate(-125.81 -107.3)"/><path class="b" d="M269.03,30a11.1,11.1,0,0,0-10,6.35h15.262l-4.738,12.742a11.6,11.6,0,0,0-.412,1.5,7.629,7.629,0,0,0-.125,1.632c.009,0,.017,0,.026,0a11.114,11.114,0,0,0,11.1-11.118A11.126,11.126,0,0,0,269.03,30Z" transform="translate(-183.78 -26.825)"/></g></g></svg>