<svg xmlns="http://www.w3.org/2000/svg" xmlns:xlink="http://www.w3.org/1999/xlink" width="118" height="118" viewBox="0 0 118 118"><defs><style>.a{fill:#0ba52f;}.b{fill:#fff;}.c{filter:url(#a);}</style><filter id="a" x="0" y="0" width="118" height="118" filterUnits="userSpaceOnUse"><feOffset dy="3" input="SourceAlpha"/><feGaussianBlur stdDeviation="3" result="b"/><feFlood flood-opacity="0.161"/><feComposite operator="in" in2="b"/><feComposite in="SourceGraphic"/></filter></defs><g transform="translate(-1520 -2287)"><g class="c" transform="matrix(1, 0, 0, 1, 1520, 2287)"><path class="a" d="M50,0A50.008,50.008,0,0,1,66.1,97.351,49.471,49.471,0,0,1,50,100,50,50,0,0,1,50,0Z" transform="translate(9 6)"/></g><g transform="translate(1553 2280)"><path class="b" d="M33.59,411H1.5A1.5,1.5,0,0,0,0,412.5a4.512,4.512,0,0,0,4.512,4.512h26.07a4.512,4.512,0,0,0,4.512-4.512A1.5,1.5,0,0,0,33.59,411Z" transform="translate(0 -332.9)"/><path class="b" d="M340.309,43.584a16.231,16.231,0,0,0-17.573,0,1.5,1.5,0,0,0-.558,2.01l4.566,8.446H336.3l4.566-8.446a1.5,1.5,0,0,0-.558-2.01Z" transform="translate(-289.71)"/><path class="b" d="M379.5,201h7.52v4.512H379.5Z" transform="translate(-341.446 -143.957)"/><path class="b" d="M379.5,291.792a3.76,3.76,0,1,0,7.52,0V276H379.5Z" transform="translate(-341.446 -211.436)"/><path class="b" d="M79.685,124.377a11.531,11.531,0,1,0,3.377,8.154A11.455,11.455,0,0,0,79.685,124.377ZM65.859,135.453a1.5,1.5,0,0,1-1.063-2.568l7.09-7.09a1.5,1.5,0,0,1,2.127,2.127l-7.09,7.09A1.5,1.5,0,0,1,65.859,135.453Zm12.408-3.277-7.09,7.09a1.5,1.5,0,0,1-2.127-2.127l7.09-7.09a1.5,1.5,0,1,1,2.127,2.127Z" transform="translate(-53.984 -71.978)"/><path class="b" d="M17.547,61A17.543,17.543,0,0,0,7.733,93.086h9.814A14.539,14.539,0,1,1,32.086,78.547,14.539,14.539,0,0,1,17.547,93.086h9.814A17.543,17.543,0,0,0,17.547,61Z" transform="translate(0 -17.994)"/></g></g></svg>