<svg xmlns="http://www.w3.org/2000/svg" width="48.996" height="32.071" viewBox="0 0 48.996 32.071"><defs><style>.a{fill:#fff;}</style></defs><g transform="translate(0 -8.463)"><path class="a" d="M45.961,18.7a1.463,1.463,0,0,0-.1-.112l-1.717-1.657c1.424-.323,2.957-1.516,2.957-2.74,0-1.426-1.979-1.932-3.668-1.932-1.766,0-1.971,1.21-1.992,2.065l-4.43-4.271a6.252,6.252,0,0,0-3.883-1.592H15.868a6.254,6.254,0,0,0-3.882,1.592L7.557,14.326c-.023-.855-.228-2.065-1.992-2.065-1.691,0-3.669.506-3.669,1.932,0,1.224,1.534,2.417,2.958,2.74L3.137,18.59c-.039.037-.066.074-.1.112A9.618,9.618,0,0,0,0,25.3v6.279a5.727,5.727,0,0,0,1.572,3.938v2.435A2.626,2.626,0,0,0,4.23,40.534H7.444A2.624,2.624,0,0,0,10.1,37.949v-.623H38.9v.623a2.623,2.623,0,0,0,2.658,2.585h3.213a2.624,2.624,0,0,0,2.657-2.585V35.514A5.723,5.723,0,0,0,49,31.576V25.3A9.607,9.607,0,0,0,45.961,18.7ZM13.613,11.953a4.43,4.43,0,0,1,2.255-.913H33.13a4.43,4.43,0,0,1,2.255.913l5.809,5.63H7.8ZM1.993,24.347a2.754,2.754,0,0,1,2.7-2.8c1.493,0,6.372,2.864,6.372,4.41S6.19,27.144,4.7,27.144A2.75,2.75,0,0,1,1.993,24.347ZM10.1,34.573H9.072l-3.055.005a5.809,5.809,0,0,1-1.869-.9,2.651,2.651,0,0,1-.506-.514,2.011,2.011,0,0,1-.284-.519,2.362,2.362,0,0,1,.4-2.061H8.977l3.476,3.99-2.351,0Zm21.894,0H17a2.833,2.833,0,0,1-2.832-2.831H34.828A2.832,2.832,0,0,1,32,34.575Zm.658-4.763H16.344c-1.7,0-3.08-2.1-3.08-4.681h22.47C35.734,27.717,34.354,29.812,32.654,29.812Zm12.987,2.832a2.025,2.025,0,0,1-.285.518,2.6,2.6,0,0,1-.506.514,5.757,5.757,0,0,1-1.869.9l-3.055-.005H36.543l3.478-3.99h5.213A2.357,2.357,0,0,1,45.641,32.644Zm-1.34-5.5c-1.492,0-6.371.356-6.371-1.188s4.879-4.41,6.371-4.41a2.8,2.8,0,0,1,0,5.6Z"/></g></svg>