<svg xmlns="http://www.w3.org/2000/svg" width="129" height="129" viewBox="0 0 129 129"><defs><style>.a{fill:#dbf0f2;}.b{fill:#fec562;}.c{fill:#177c87;}</style></defs><g transform="translate(-896 -4452.234)"><circle class="a" cx="64.5" cy="64.5" r="64.5" transform="translate(896 4452.234)"/><g transform="translate(929 4485.234)"><g transform="translate(35.112)"><path class="b" d="M301.655,0A13.67,13.67,0,0,0,288,13.655c0,7.007,10.955,19.417,12.2,20.81a1.95,1.95,0,0,0,2.9,0c1.248-1.393,12.2-13.8,12.2-20.81A13.67,13.67,0,0,0,301.655,0Zm0,19.507a5.852,5.852,0,1,1,5.852-5.852A5.854,5.854,0,0,1,301.655,19.507Z" transform="translate(-288 0)"/></g><g transform="translate(0 15.605)"><path class="c" d="M1.225,135.311A1.957,1.957,0,0,0,0,137.125v35.74a1.95,1.95,0,0,0,2.676,1.81l16.83-6.734V128Z" transform="translate(0 -128)"/></g><g transform="translate(42.915 24.622)"><path class="c" d="M362.206,214.4a5.85,5.85,0,0,1-8.708,0c-.4-.441-.909-1.022-1.5-1.713v27.064l18.282-7.311a1.945,1.945,0,0,0,1.225-1.81V201.952A84.772,84.772,0,0,1,362.206,214.4Z" transform="translate(-352 -201.952)"/></g><g transform="translate(23.408 15.605)"><path class="c" d="M201.032,131.613,192,128v39.942l15.605,6.242V142.856A50.791,50.791,0,0,1,201.032,131.613Z" transform="translate(-192 -128)"/></g></g></g></svg>