<svg xmlns="http://www.w3.org/2000/svg" width="129" height="129" viewBox="0 0 129 129"><defs><style>.a{fill:#dbf0f2;}.b{fill:#fec562;}.c{fill:#177c87;}</style></defs><g transform="translate(-1520 -4452.234)"><circle class="a" cx="64.5" cy="64.5" r="64.5" transform="translate(1520 4452.234)"/><g transform="translate(1522 4481.234)"><g transform="translate(39.359)"><g transform="translate(0)"><path class="b" d="M113.986,0A22.976,22.976,0,0,0,95.3,36.361l16.925,26.411a2.089,2.089,0,0,0,3.518,0l17-26.5A22.986,22.986,0,0,0,113.986,0Zm0,33.435a10.448,10.448,0,1,1,10.448-10.448A10.461,10.461,0,0,1,113.986,33.435Z" transform="translate(-91)"/></g></g><g transform="translate(31 48.02)"><g transform="translate(0)"><path class="c" d="M78.681,344.7,68.159,361.146a6.909,6.909,0,0,1-11.63,0L45.99,344.7C36.716,346.843,31,350.771,31,355.464,31,363.609,47.15,368,62.345,368s31.345-4.394,31.345-12.538C93.69,350.768,87.966,346.838,78.681,344.7Z" transform="translate(-31 -344.695)"/></g></g></g></g></svg>