<svg xmlns="http://www.w3.org/2000/svg" width="6.783" height="12.414" viewBox="0 0 6.783 12.414"><defs><style>.a{fill:#1ba7b6;}</style></defs><path class="a" d="M83.661,8.508A2.653,2.653,0,0,0,82.506,6.2a6.917,6.917,0,0,0-2.026-.854C79.018,4.9,78.593,4.67,78.593,3.97c0-.779,1.012-1.056,1.879-1.056a3.624,3.624,0,0,1,1.808.487l.894-1.385a5.124,5.124,0,0,0-2.193-.724V0H79.333V1.384a2.691,2.691,0,0,0-2.39,2.587,2.476,2.476,0,0,0,1.127,2.152,6.919,6.919,0,0,0,1.931.8c1.434.434,2.017.7,2.01,1.573V8.5c0,.734-.973,1-1.807,1a3.092,3.092,0,0,1-2.13-.858l-1.2,1.133a4.6,4.6,0,0,0,2.455,1.29v1.349h1.649v-1.32C82.611,10.861,83.66,9.88,83.661,8.508Z" transform="translate(-76.878)"/></svg>