<svg xmlns="http://www.w3.org/2000/svg" width="30.955" height="30.955" viewBox="0 0 30.955 30.955"><defs><style>.a{fill:#fec562;}.b{fill:#177c87;}</style></defs><g transform="translate(0)"><path class="a" d="M29.246,0H1.707A1.708,1.708,0,0,0,0,1.709V29.248a1.708,1.708,0,0,0,1.709,1.707H29.246a1.708,1.708,0,0,0,1.709-1.708h0V1.707A1.708,1.708,0,0,0,29.246,0Zm0,0" transform="translate(0 0)"/><path class="b" d="M215.857,103.6V91.633h4.036l.6-4.686h-4.64V83.964c0-1.353.376-2.276,2.317-2.276h2.46V77.508a33.065,33.065,0,0,0-3.6-.184c-3.567,0-6.008,2.177-6.008,6.175v3.448H207v4.686h4.021V103.6Zm0,0" transform="translate(-194.485 -72.649)"/></g></svg>