<svg xmlns="http://www.w3.org/2000/svg" width="100" height="100" viewBox="0 0 100 100"><defs><style>.a{fill:#177c87;}.b{fill:#fcfcfc;}</style></defs><g transform="translate(-163 -160)"><g transform="translate(-532 -2133)"><circle class="a" cx="50" cy="50" r="50" transform="translate(695 2293)"/></g><g transform="translate(187.847 185)"><g transform="translate(2.892)"><path class="b" d="M73.83,41.856l-19.3-19.3L31.974,0H30.212l-.36.914a16.169,16.169,0,0,0-1.173,7.139,10.083,10.083,0,0,0,2.826,6.44L49.11,32.1l2.322-2.322,16.277,18.2a4.328,4.328,0,0,0,6.121-6.121Z" transform="translate(-28.636)"/></g><g transform="translate(0.153 28.022)"><g transform="translate(0)"><path class="b" d="M15.207,291.442,1.419,305.231a4.328,4.328,0,0,0,6.121,6.121l13.789-13.789Z" transform="translate(-0.153 -291.442)"/></g></g><g transform="translate(26.517 0.035)"><g transform="translate(0)"><path class="b" d="M295.112,8.523l-7.822,7.822L285.25,14.3l7.822-7.822-2.04-2.04-7.822,7.822-2.04-2.04L288.991,2.4l-2.04-2.04-10.2,10.2a7.2,7.2,0,0,0-2.1,4.667,4.156,4.156,0,0,1-.3,1.3l6.627,6.627a4.152,4.152,0,0,1,1.3-.3,7.2,7.2,0,0,0,4.667-2.1l10.2-10.2Z" transform="translate(-274.354 -0.361)"/></g></g></g></g></svg>