<svg xmlns="http://www.w3.org/2000/svg" width="19.645" height="19.645" viewBox="0 0 19.645 19.645"><defs><style>.a{fill:#fec562;}</style></defs><g transform="translate(-11 -11)"><path class="a" d="M27.767,13.879a9.815,9.815,0,1,0,2.879,6.944A9.75,9.75,0,0,0,27.767,13.879Zm1.989,6.5H25.946a17.055,17.055,0,0,0-.621-4.27,9.741,9.741,0,0,0,2.025-1.4A8.921,8.921,0,0,1,29.755,20.382Zm-8.492.882h3.8a16.123,16.123,0,0,1-.557,3.925,9.916,9.916,0,0,0-3.247-.706Zm5.453-7.16a8.932,8.932,0,0,1-1.668,1.159,10.241,10.241,0,0,0-.517-1.2,7.067,7.067,0,0,0-1.291-1.844A8.9,8.9,0,0,1,26.716,14.1Zm-5.453-2.085a4.157,4.157,0,0,1,2.482,2.43,10.02,10.02,0,0,1,.505,1.191,9,9,0,0,1-2.987.67Zm3.251,4.466a16.125,16.125,0,0,1,.549,3.9h-3.8V17.194A9.921,9.921,0,0,0,24.515,16.485Zm-4.134,3.9h-3.8a16.125,16.125,0,0,1,.549-3.9,9.738,9.738,0,0,0,3.251.706v3.2Zm0-8.363v4.29a8.975,8.975,0,0,1-2.987-.67,10.02,10.02,0,0,1,.505-1.191,4.157,4.157,0,0,1,2.482-2.43Zm-1.977.2a7.135,7.135,0,0,0-1.291,1.844,11.794,11.794,0,0,0-.517,1.2A9.066,9.066,0,0,1,14.933,14.1,8.9,8.9,0,0,1,18.409,12.215Zm-4.109,2.5a9.9,9.9,0,0,0,2.025,1.4,16.9,16.9,0,0,0-.621,4.27H11.894A8.921,8.921,0,0,1,14.3,14.717Zm-2.406,6.547H15.7a17.033,17.033,0,0,0,.629,4.294,9.653,9.653,0,0,0-2.017,1.387,8.907,8.907,0,0,1-2.422-5.681Zm3.055,6.295a8.966,8.966,0,0,1,1.66-1.151,10.865,10.865,0,0,0,.509,1.179,7.161,7.161,0,0,0,1.291,1.848,8.949,8.949,0,0,1-3.46-1.876Zm5.437,2.069A4.157,4.157,0,0,1,17.9,27.2a10.305,10.305,0,0,1-.5-1.167,8.85,8.85,0,0,1,2.979-.666Zm-3.247-4.438a16.123,16.123,0,0,1-.557-3.925h3.8v3.219a9.715,9.715,0,0,0-3.247.706Zm4.13,4.438V25.365a8.947,8.947,0,0,1,2.979.666,10.3,10.3,0,0,1-.5,1.167,4.157,4.157,0,0,1-2.482,2.43Zm1.977-.2a7.093,7.093,0,0,0,1.291-1.848,10.865,10.865,0,0,0,.509-1.179,8.966,8.966,0,0,1,1.66,1.151A8.845,8.845,0,0,1,23.244,29.43Zm4.1-2.486a9.808,9.808,0,0,0-2.017-1.387,17.061,17.061,0,0,0,.629-4.294h3.809a8.948,8.948,0,0,1-2.422,5.681Z"/></g></svg>