<svg xmlns="http://www.w3.org/2000/svg" width="24" height="24" viewBox="0 0 24 24"><defs><style>.a{fill:#fbbb00;}.b{fill:#518ef8;}.c{fill:#28b446;}.d{fill:#f14336;}.e{fill:none;}</style></defs><g transform="translate(-837 -839)"><g transform="translate(840 842.75)"><path class="a" d="M3.878,10.575,3.269,12.85,1.043,12.9A8.765,8.765,0,0,1,.978,4.726h0l1.982.363.868,1.97a5.222,5.222,0,0,0,.049,3.516Z"/><path class="b" d="M17.347,7.115a8.747,8.747,0,0,1-3.119,8.458h0l-2.5-.127-.353-2.206a5.215,5.215,0,0,0,2.244-2.663H8.942V7.115h8.4Z"/><path class="c" d="M14.227,15.573h0A8.753,8.753,0,0,1,1.043,12.9l2.836-2.321a5.2,5.2,0,0,0,7.5,2.664Z"/><path class="d" d="M14.335,2.014,11.5,4.335A5.2,5.2,0,0,0,3.829,7.06L.979,4.726h0A8.752,8.752,0,0,1,14.335,2.014Z"/></g><rect class="e" width="24" height="24" transform="translate(837 839)"/></g></svg>