<svg xmlns="http://www.w3.org/2000/svg" width="51" height="51" viewBox="0 0 51 51"><defs><style>.a{fill:#fec562;}.b{fill:#fff;}</style></defs><g transform="translate(-184 -1232)"><rect class="a" width="51" height="51" rx="12" transform="translate(184 1232)"/><g transform="translate(114.431 1241)"><path class="b" d="M102.99,3.329A11.372,11.372,0,1,0,89.247,21.2v6.984a5.588,5.588,0,0,0,5.582,5.582h.151a5.592,5.592,0,0,0,5.589-5.582V21.247a11.362,11.362,0,0,0,5.753-9.881,11.286,11.286,0,0,0-3.333-8.037ZM91.224,26.268V23.895h7.367v2.373Zm3.756,5.525h-.151a3.608,3.608,0,0,1-3.6-3.548H98.59A3.612,3.612,0,0,1,94.98,31.793Zm7.92-15.424a9.428,9.428,0,0,1-3.761,3.4.989.989,0,0,0-.547.885v1.263H91.224v-1.3a.989.989,0,0,0-.54-.881A9.4,9.4,0,1,1,102.9,16.369Z"/><path class="b" d="M213.641,88.38h-2.52l2.288-3.566a.989.989,0,0,0-1.664-1.068l-3.266,5.089a.989.989,0,0,0,.832,1.523h2.532l-2.745,4.33a.989.989,0,1,0,1.67,1.059l3.707-5.848a.989.989,0,0,0-.835-1.518Z" transform="translate(-116.531 -77.801)"/></g></g></svg>