<svg xmlns="http://www.w3.org/2000/svg" width="16" height="12.733" viewBox="0 0 16 12.733"><defs><style>.a{fill:#1ba7b6;}</style></defs><g transform="translate(0.001 -46.994)"><g transform="translate(-0.001 46.994)"><path class="a" d="M71.414,120.939l-5.706,4.7a.135.135,0,0,1-.005.03.135.135,0,0,0-.005.03v4.764a.644.644,0,0,0,.635.635h3.811v-3.811h2.541V131.1H76.5a.645.645,0,0,0,.635-.635V125.7a.14.14,0,0,0-.01-.059Z" transform="translate(-63.414 -118.369)"/><path class="a" d="M15.889,53.2l-2.173-1.806V47.341a.306.306,0,0,0-.318-.318H11.493a.305.305,0,0,0-.318.318v1.935L8.754,47.252a1.231,1.231,0,0,0-1.508,0L.11,53.2A.288.288,0,0,0,0,53.41a.321.321,0,0,0,.069.233l.615.734a.338.338,0,0,0,.208.109.369.369,0,0,0,.238-.069L8,48.691l6.868,5.726a.306.306,0,0,0,.208.069h.03a.339.339,0,0,0,.208-.109l.615-.734A.321.321,0,0,0,16,53.41.289.289,0,0,0,15.889,53.2Z" transform="translate(0.001 -46.994)"/></g></g></svg>