<svg xmlns="http://www.w3.org/2000/svg" width="28" height="22.283" viewBox="0 0 28 22.283"><defs><style>.a{fill:#fec562;}</style></defs><g transform="translate(0.001 -46.994)"><g transform="translate(-0.001 46.994)"><path class="a" d="M75.7,120.939l-9.986,8.232a.236.236,0,0,1-.009.052.237.237,0,0,0-.009.052v8.336a1.128,1.128,0,0,0,1.112,1.112h6.669v-6.669h4.446v6.669h6.669a1.129,1.129,0,0,0,1.112-1.112v-8.336a.245.245,0,0,0-.018-.1Z" transform="translate(-61.702 -116.441)"/><path class="a" d="M27.806,57.849,24,54.688V47.6a.535.535,0,0,0-.556-.556H20.113a.535.535,0,0,0-.556.556v3.387l-4.238-3.543a2.154,2.154,0,0,0-2.64,0L.192,57.849A.5.5,0,0,0,0,58.222a.562.562,0,0,0,.121.408L1.2,59.916a.592.592,0,0,0,.365.191.646.646,0,0,0,.417-.122L14,49.964,26.017,59.985a.535.535,0,0,0,.365.121h.052a.593.593,0,0,0,.365-.191l1.077-1.285A.562.562,0,0,0,28,58.222.506.506,0,0,0,27.806,57.849Z" transform="translate(0.001 -46.994)"/></g></g></svg>