<svg xmlns="http://www.w3.org/2000/svg" width="100" height="100" viewBox="0 0 100 100"><defs><style>.a{fill:#2097f2;}.b{fill:#fcfcfc;}</style></defs><g transform="translate(-342 -160)"><path class="a" d="M50,0A50,50,0,1,1,0,50,50,50,0,0,1,50,0Z" transform="translate(342 160)"/><g transform="translate(369 187)"><path class="b" d="M226,390h5.478v11.139H226Z" transform="translate(-205.364 -354.39)"/><path class="b" d="M121.023,46.75h6.846V32.871h10.957V46.75H145.7V0H121.023ZM140.2,5.478h2.739V8.218H140.2Zm0,5.478h2.739V13.7H140.2Zm0,5.478h2.739v2.739H140.2Zm0,5.478h2.739v2.739H140.2Zm0,5.478h2.739v2.739H140.2ZM134.717,5.478h2.739V8.218h-2.739Zm0,5.478h2.739V13.7h-2.739Zm0,5.478h2.739v2.739h-2.739Zm0,5.478h2.739v2.739h-2.739Zm0,5.478h2.739v2.739h-2.739ZM129.239,5.478h2.739V8.218h-2.739Zm0,5.478h2.739V13.7h-2.739Zm0,5.478h2.739v2.739h-2.739Zm0,5.478h2.739v2.739h-2.739Zm0,5.478h2.739v2.739h-2.739ZM123.76,5.478H126.5V8.218H123.76Zm0,5.478H126.5V13.7H123.76Zm0,5.478H126.5v2.739H123.76Zm0,5.478H126.5v2.739H123.76Zm0,5.478H126.5v2.739H123.76Z" transform="translate(-109.973)"/><path class="b" d="M420.637,120h8.342v35.793h-8.342Z" transform="translate(-382.23 -109.043)"/><path class="b" d="M0,120H8.309v35.793H0Z" transform="translate(0 -109.043)"/></g></g></svg>