<svg xmlns="http://www.w3.org/2000/svg" width="33.108" height="33.108" viewBox="0 0 33.108 33.108"><defs><style>.a{fill:#fff;}</style></defs><g transform="translate(0.001)"><path class="a" d="M24.145,0H8.961A8.972,8.972,0,0,0,0,8.962V24.146a8.972,8.972,0,0,0,8.962,8.962H24.145a8.972,8.972,0,0,0,8.962-8.962V8.962A8.972,8.972,0,0,0,24.145,0ZM16.553,25.606a9.053,9.053,0,1,1,9.053-9.053A9.063,9.063,0,0,1,16.553,25.606Zm9.269-15.97A2.675,2.675,0,1,1,28.5,6.961,2.678,2.678,0,0,1,25.822,9.636Zm0,0"/><path class="a" d="M153.132,146.02a7.112,7.112,0,1,0,7.112,7.112A7.12,7.12,0,0,0,153.132,146.02Zm0,0" transform="translate(-136.579 -136.578)"/><path class="a" d="M388.726,96.3a.734.734,0,1,0,.734.734A.735.735,0,0,0,388.726,96.3Zm0,0" transform="translate(-362.904 -90.074)"/></g></svg>