<svg xmlns="http://www.w3.org/2000/svg" width="51" height="51" viewBox="0 0 51 51"><defs><style>.a{fill:#fec562;}.b{fill:#fff;}</style></defs><g transform="translate(-183 -963)"><rect class="a" width="51" height="51" rx="12" transform="translate(183 963)"/><g transform="translate(195 975)"><g transform="translate(0 1.885)"><path class="b" d="M21.682,45.449a.943.943,0,0,0-.943.943v9.427a.943.943,0,0,1-.943.943H2.828a.943.943,0,0,1-.943-.943V36.965a.943.943,0,0,1,.943-.943H14.14a.943.943,0,1,0,0-1.885H2.828A2.828,2.828,0,0,0,0,36.965V55.819a2.828,2.828,0,0,0,2.828,2.828H19.8a2.828,2.828,0,0,0,2.828-2.828V46.392A.943.943,0,0,0,21.682,45.449Z" transform="translate(0 -34.137)"/></g><g transform="translate(5.657 0)"><g transform="translate(0 0)"><path class="b" d="M122.091,1.061a3.608,3.608,0,0,0-5.1,0L104.57,13.478a.953.953,0,0,0-.227.369L102.457,19.5a.943.943,0,0,0,.894,1.241.958.958,0,0,0,.3-.048L109.3,18.81a.943.943,0,0,0,.369-.228L122.091,6.164A3.609,3.609,0,0,0,122.091,1.061Z" transform="translate(-102.409 -0.004)"/></g></g></g></g></svg>