<svg xmlns="http://www.w3.org/2000/svg" width="83.163" height="85.552" viewBox="0 0 83.163 85.552"><defs><style>.a{fill:#fec562;}.b{fill:#177c87;}</style></defs><g transform="translate(-283.309 -1186.324)"><path class="a" d="M4303.646,3669.651c4.8-9.161,17.792-4.878,17.792-4.878s6.6,32.442,1.8,36.642-12.3,3.6-13.5,3.3-8.1-.6-7.5-3.3S4298.847,3678.811,4303.646,3669.651Z" transform="translate(-4016.622 -2435.673)"/><g transform="translate(283.309 1186.324)"><path class="b" d="M87.342,58.161a10.627,10.627,0,0,0,2.487-7.1A10.911,10.911,0,0,0,87.5,44.9a9.562,9.562,0,0,0-2.272-11c-2.845-2.594-7.675-3.757-14.366-3.435a56.145,56.145,0,0,0-8.8,1.127h-.018c-.895.161-1.843.358-2.809.572-.072-1.145.125-3.99,2.236-10.394,2.5-7.621,2.362-13.454-.465-17.354A11.373,11.373,0,0,0,51.9,0a4.493,4.493,0,0,0-3.453,1.574c-1.986,2.308-1.753,6.566-1.5,8.534-2.362,6.333-8.981,21.862-14.581,26.174a1.915,1.915,0,0,0-.286.25,19.219,19.219,0,0,0-3.507,5.26A7.383,7.383,0,0,0,25.03,40.9H14.117A7.448,7.448,0,0,0,6.675,48.34V77.411a7.448,7.448,0,0,0,7.442,7.442H25.03a7.427,7.427,0,0,0,4.294-1.36l4.2.5A180.124,180.124,0,0,0,57.376,85.3c2.129.161,4.133.25,5.993.25a40.141,40.141,0,0,0,8.319-.751c5.474-1.163,9.214-3.489,11.11-6.906a10.95,10.95,0,0,0,1.217-6.852,11.412,11.412,0,0,0,4.061-9.285A12.085,12.085,0,0,0,87.342,58.161ZM14.117,80.023a2.615,2.615,0,0,1-2.612-2.612V48.322a2.615,2.615,0,0,1,2.612-2.612H25.03a2.615,2.615,0,0,1,2.612,2.612V77.394a2.615,2.615,0,0,1-2.612,2.612H14.117ZM82.762,56.068a2.4,2.4,0,0,0-.322,2.916,7.444,7.444,0,0,1,.823,2.988c.125,2.344-1,4.419-3.363,6.19a2.438,2.438,0,0,0-.823,2.755,6.318,6.318,0,0,1-.483,4.616c-1.2,2.147-3.864,3.685-7.908,4.544a47.131,47.131,0,0,1-13.042.394h-.25A176.591,176.591,0,0,1,34.137,79.2h-.018l-1.807-.215a7.58,7.58,0,0,0,.161-1.574V48.322a7.568,7.568,0,0,0-.34-2.218,14.953,14.953,0,0,1,3.328-6.136C43.493,33.6,51.347,12.112,51.687,11.181a2.265,2.265,0,0,0,.107-1.2c-.3-2-.2-4.455.233-5.188A6.419,6.419,0,0,1,57.072,7.21c1.825,2.523,1.753,7.031-.215,13.006-3.006,9.106-3.256,13.9-.877,16.012a3.9,3.9,0,0,0,3.9.7c1.091-.25,2.129-.465,3.113-.626.072-.018.161-.036.233-.054,5.492-1.2,15.332-1.932,18.749,1.181,2.9,2.648.841,6.154.608,6.53a2.392,2.392,0,0,0,.429,3.113A6.777,6.777,0,0,1,85,51.238,6.644,6.644,0,0,1,82.762,56.068Z" transform="translate(-6.675 0)"/></g></g></svg>