<svg xmlns="http://www.w3.org/2000/svg" width="10.848" height="10.848" viewBox="0 0 10.848 10.848"><defs><style>.a{fill:#1ba7b6;}</style></defs><g transform="translate(2.564)"><path class="a" d="M125.767,0h-3.814A.954.954,0,0,0,121,.953V2.9a.954.954,0,0,0,.953.953h3.814a.954.954,0,0,0,.953-.953V.953A.954.954,0,0,0,125.767,0Z" transform="translate(-121)"/></g><g transform="translate(0 4.492)"><path class="a" d="M10.212,215.178H9.577v-.318a.954.954,0,0,0-.953-.953H5.742v-.638H6.7a.317.317,0,1,0,0-.633H6.377V212H4.47v.636H4.153a.317.317,0,1,0,0,.633h.953v.638H2.225a.954.954,0,0,0-.953.953v.318H.636a.636.636,0,0,0-.636.636v.636a.636.636,0,0,0,.636.636h.636v.636H.953a.318.318,0,1,0,0,.636H2.225a.318.318,0,1,0,0-.636H1.907v-.636h.636a.636.636,0,0,0,.636-.636v-.636a.636.636,0,0,0-.636-.636H1.907v-.318a.318.318,0,0,1,.318-.318H5.106v.636H4.47a.636.636,0,0,0-.636.636v.636a.636.636,0,0,0,.636.636h.636v.636H4.788a.318.318,0,1,0,0,.636H6.059a.318.318,0,1,0,0-.636H5.742v-.636h.636a.636.636,0,0,0,.636-.636v-.636a.636.636,0,0,0-.636-.636H5.742v-.636H8.623a.318.318,0,0,1,.318.318v.318H8.305a.636.636,0,0,0-.636.636v.636a.636.636,0,0,0,.636.636h.636v.636H8.623a.318.318,0,1,0,0,.636H9.894a.318.318,0,1,0,0-.636H9.577v-.636h.636a.636.636,0,0,0,.636-.636v-.636A.636.636,0,0,0,10.212,215.178Z" transform="translate(0 -212)"/></g></svg>