<svg xmlns="http://www.w3.org/2000/svg" width="15.207" height="15.236" viewBox="0 0 15.207 15.236"><defs><style>.a{fill:none;stroke:#1ba7b6;stroke-linecap:round;stroke-linejoin:round;}</style></defs><path class="a" d="M16.317,12.657V14.8a1.429,1.429,0,0,1-1.557,1.429A14.135,14.135,0,0,1,8.6,14.036,13.928,13.928,0,0,1,4.311,9.75,14.136,14.136,0,0,1,2.118,3.557,1.429,1.429,0,0,1,3.539,2H5.682A1.429,1.429,0,0,1,7.11,3.229a9.171,9.171,0,0,0,.5,2.007,1.429,1.429,0,0,1-.321,1.507l-.907.907a11.428,11.428,0,0,0,4.286,4.286l.907-.907a1.429,1.429,0,0,1,1.507-.321,9.171,9.171,0,0,0,2.007.5,1.429,1.429,0,0,1,1.229,1.45Z" transform="translate(-1.611 -1.5)"/></svg>