<svg xmlns="http://www.w3.org/2000/svg" width="20.111" height="20.111" viewBox="0 0 20.111 20.111"><defs><style>.a{fill:#fec562;}</style></defs><g transform="translate(-643 -411)"><g transform="translate(643 411)"><path class="a" d="M18.5,13.2a11.418,11.418,0,0,1-3.586-.571,1.639,1.639,0,0,0-1.594.336l-2.261,1.707A12.5,12.5,0,0,1,5.438,9.055l1.657-2.2a1.626,1.626,0,0,0,.4-1.647,11.436,11.436,0,0,1-.573-3.592A1.616,1.616,0,0,0,5.307,0H1.614A1.616,1.616,0,0,0,0,1.614a18.518,18.518,0,0,0,18.5,18.5A1.616,1.616,0,0,0,20.111,18.5V14.814A1.616,1.616,0,0,0,18.5,13.2Z"/></g></g></svg>