<svg xmlns="http://www.w3.org/2000/svg" width="51" height="51" viewBox="0 0 51 51"><defs><style>.a{fill:#fec562;}.b{fill:#fff;}</style></defs><g transform="translate(-184 -1439)"><rect class="a" width="51" height="51" rx="12" transform="translate(184 1439)"/><path class="b" d="M93.2,20.476a6.384,6.384,0,0,0-2.781-5.553,16.646,16.646,0,0,0-4.876-2.056c-3.519-1.067-4.54-1.629-4.54-3.312,0-1.875,2.436-2.542,4.522-2.542A8.721,8.721,0,0,1,89.88,8.185l2.152-3.332a12.331,12.331,0,0,0-5.277-1.741V0H82.786V3.33c-3.528.776-5.751,3.082-5.751,6.225a5.958,5.958,0,0,0,2.713,5.178A16.651,16.651,0,0,0,84.4,16.666c3.452,1.043,4.854,1.679,4.838,3.785v.016c0,1.767-2.342,2.4-4.349,2.4A7.441,7.441,0,0,1,79.761,20.8l-2.883,2.727a11.067,11.067,0,0,0,5.908,3.105v3.246h3.969V26.7C90.676,26.138,93.2,23.777,93.2,20.476Z" transform="translate(124.122 1450)"/></g></svg>