<svg xmlns="http://www.w3.org/2000/svg" xmlns:xlink="http://www.w3.org/1999/xlink" width="70" height="70" viewBox="0 0 70 70"><defs><style>.a{fill:#fec562;}.b{fill:#fcfcfc;}.c{filter:url(#a);}</style><filter id="a" x="0" y="0" width="70" height="70" filterUnits="userSpaceOnUse"><feOffset input="SourceAlpha"/><feGaussianBlur stdDeviation="3" result="b"/><feFlood flood-opacity="0.161"/><feComposite operator="in" in2="b"/><feComposite in="SourceGraphic"/></filter></defs><g transform="translate(-1703 -74)"><g class="c" transform="matrix(1, 0, 0, 1, 1703, 74)"><circle class="a" cx="26" cy="26" r="26" transform="translate(9 9)"/></g><g transform="translate(1696 97)"><g transform="translate(35.292)"><path class="b" d="M127.438,0a6.438,6.438,0,1,0,6.438,6.438A6.446,6.446,0,0,0,127.438,0Z" transform="translate(-121 0)"/></g><g transform="translate(31 14.307)"><path class="b" d="M49.741,302.775A9.178,9.178,0,0,0,43.161,300H40.3a9.178,9.178,0,0,0-6.58,2.775A9.383,9.383,0,0,0,31,309.4a.715.715,0,0,0,.715.715h20.03a.715.715,0,0,0,.715-.715A9.383,9.383,0,0,0,49.741,302.775Z" transform="translate(-31 -300)"/></g></g></g></svg>