<svg xmlns="http://www.w3.org/2000/svg" xmlns:xlink="http://www.w3.org/1999/xlink" width="118" height="118" viewBox="0 0 118 118"><defs><style>.a{fill:#f9a12d;}.b{fill:#fff;}.c{filter:url(#a);}</style><filter id="a" x="0" y="0" width="118" height="118" filterUnits="userSpaceOnUse"><feOffset input="SourceAlpha"/><feGaussianBlur stdDeviation="3" result="b"/><feFlood flood-opacity="0.161"/><feComposite operator="in" in2="b"/><feComposite in="SourceGraphic"/></filter></defs><g transform="translate(-1103 -2284)"><g class="c" transform="matrix(1, 0, 0, 1, 1103, 2284)"><circle class="a" cx="50" cy="50" r="50" transform="translate(9 9)"/></g><g transform="translate(1137.133 2320.875)"><path class="b" d="M16.114,29.122H42.421a1.452,1.452,0,0,0,1.4-1.056L49.645,7.68a1.454,1.454,0,0,0-1.4-1.856H12.753L11.712,1.141A1.456,1.456,0,0,0,10.29,0H1.456a1.456,1.456,0,1,0,0,2.912H9.121l5.258,23.662a4.366,4.366,0,0,0,1.735,8.373H42.421a1.456,1.456,0,1,0,0-2.912H16.114a1.456,1.456,0,1,1,0-2.912Zm0,0" transform="translate(0 0)"/><path class="b" d="M151,364.372A4.368,4.368,0,1,0,155.369,360,4.373,4.373,0,0,0,151,364.372Zm0,0" transform="translate(-136.342 -325.057)"/><path class="b" d="M362,364.372A4.368,4.368,0,1,0,366.372,360,4.373,4.373,0,0,0,362,364.372Zm0,0" transform="translate(-326.863 -325.057)"/></g></g></svg>