<svg xmlns="http://www.w3.org/2000/svg" width="73.203" height="87.741" viewBox="0 0 73.203 87.741"><defs><style>.a{fill:#fec562;}.b{fill:#177c87;}</style></defs><g transform="translate(-1577.898 -1158)"><circle class="a" cx="18" cy="18" r="18" transform="translate(1596 1161)"/><g transform="translate(1577.898 1158)"><path class="b" d="M108.165,42.266a20.449,20.449,0,0,0,14.943-6.191A20.45,20.45,0,0,0,129.3,21.132,20.451,20.451,0,0,0,123.107,6.19a21.128,21.128,0,0,0-29.884,0,20.449,20.449,0,0,0-6.191,14.941,20.449,20.449,0,0,0,6.191,14.943,20.455,20.455,0,0,0,14.942,6.191ZM96.859,9.826a15.986,15.986,0,0,1,22.612,0,15.278,15.278,0,0,1,4.685,11.306,15.278,15.278,0,0,1-4.685,11.306,15.984,15.984,0,0,1-22.612,0,15.275,15.275,0,0,1-4.686-11.306A15.276,15.276,0,0,1,96.859,9.826Zm0,0" transform="translate(-72.117)"/><path class="b" d="M73.025,272.4a52.2,52.2,0,0,0-.711-5.544,43.679,43.679,0,0,0-1.364-5.574,27.537,27.537,0,0,0-2.292-5.2,19.6,19.6,0,0,0-3.455-4.5,15.235,15.235,0,0,0-4.964-3.119,17.155,17.155,0,0,0-6.337-1.147c-.9,0-1.762.368-3.435,1.457-1.03.671-2.234,1.448-3.578,2.307a20.5,20.5,0,0,1-4.63,2.04,17.978,17.978,0,0,1-11.325,0,20.441,20.441,0,0,1-4.626-2.039c-1.331-.851-2.536-1.627-3.581-2.308-1.672-1.089-2.538-1.457-3.433-1.457a17.133,17.133,0,0,0-6.336,1.148,15.222,15.222,0,0,0-4.964,3.119,19.6,19.6,0,0,0-3.454,4.5,27.585,27.585,0,0,0-2.291,5.2,43.784,43.784,0,0,0-1.363,5.573A51.843,51.843,0,0,0,.175,272.4C.059,274.08,0,275.824,0,277.586c0,4.58,1.456,8.288,4.327,11.023a15.575,15.575,0,0,0,11.15,4.067H57.725a15.577,15.577,0,0,0,11.15-4.067c2.872-2.733,4.328-6.442,4.328-11.023,0-1.768-.06-3.512-.177-5.183Zm-7.7,12.48a10.487,10.487,0,0,1-7.605,2.65H15.477a10.487,10.487,0,0,1-7.605-2.65c-1.838-1.749-2.731-4.137-2.731-7.3,0-1.644.054-3.267.163-4.826a46.761,46.761,0,0,1,.643-4.993,38.617,38.617,0,0,1,1.2-4.914,22.458,22.458,0,0,1,1.865-4.227A14.528,14.528,0,0,1,11.55,255.3a10.107,10.107,0,0,1,3.3-2.053,11.832,11.832,0,0,1,4.049-.781c.18.1.5.278,1.02.617,1.057.689,2.275,1.475,3.622,2.335a25.476,25.476,0,0,0,5.811,2.6,23.115,23.115,0,0,0,14.488,0,25.5,25.5,0,0,0,5.815-2.6c1.378-.881,2.563-1.644,3.62-2.334.519-.338.84-.521,1.02-.617a11.839,11.839,0,0,1,4.051.781,10.121,10.121,0,0,1,3.3,2.053,14.489,14.489,0,0,1,2.539,3.328,22.383,22.383,0,0,1,1.866,4.226,38.527,38.527,0,0,1,1.2,4.914,47.156,47.156,0,0,1,.643,4.994h0c.109,1.552.164,3.175.165,4.824,0,3.162-.894,5.549-2.731,7.3Zm0,0" transform="translate(0 -204.934)"/></g></g></svg>