<svg xmlns="http://www.w3.org/2000/svg" width="84.001" height="84.908" viewBox="0 0 84.001 84.908"><defs><style>.a{fill:#fec562;}.b{fill:#177c87;}</style></defs><g transform="translate(-707.571 -1152)"><rect class="a" width="15" height="48" transform="translate(773 1186)"/><g transform="translate(705.568 1152)"><g transform="translate(2.003 0)"><path class="b" d="M160.637,218.936H145.029a2.365,2.365,0,0,0-2.365,2.365v30.626a2.365,2.365,0,0,0,2.365,2.365h15.608A2.365,2.365,0,0,0,163,251.927V221.3A2.365,2.365,0,0,0,160.637,218.936Zm-2.365,30.626H147.394v-25.9h10.879Z" transform="translate(-110.828 -169.384)"/><path class="b" d="M297.115,136.911H281.388a2.365,2.365,0,0,0-2.365,2.365v49.191a2.365,2.365,0,0,0,2.365,2.365h15.727a2.365,2.365,0,0,0,2.365-2.365V139.276A2.365,2.365,0,0,0,297.115,136.911ZM294.75,186.1h-11V141.641h11Z" transform="translate(-216.325 -105.924)"/><path class="b" d="M23.874,269.613H8.147a2.365,2.365,0,0,0-2.365,2.365v19.156A2.365,2.365,0,0,0,8.147,293.5H23.874a2.365,2.365,0,0,0,2.365-2.365V271.978A2.365,2.365,0,0,0,23.874,269.613Zm-2.365,19.156h-11V274.343h11Z" transform="translate(-4.927 -208.591)"/><path class="b" d="M85.394,2.372a2.01,2.01,0,0,0-1.537-.828L62.336.007a2.372,2.372,0,0,0-.355,4.73L77.213,5.771l-28,21.906-21.4-16.791A2.365,2.365,0,0,0,24.734,11L2.74,32.052a2.365,2.365,0,0,0-.118,3.311A2.128,2.128,0,0,0,4.4,36.19a2.364,2.364,0,0,0,1.655-.71L26.508,15.852,47.674,32.524a2.365,2.365,0,0,0,2.956,0L80.9,8.968,79.719,23.656a2.483,2.483,0,0,0,2.247,2.483h.118a2.365,2.365,0,0,0,2.365-2.128L85.986,4.027A1.892,1.892,0,0,0,85.394,2.372Z" transform="translate(-2.003 0)"/></g></g></g></svg>