<svg xmlns="http://www.w3.org/2000/svg" width="51" height="51" viewBox="0 0 51 51"><defs><style>.a{fill:#57aeeb;}.b{fill:#fff;}</style></defs><g transform="translate(-1378 -854)"><rect class="a" width="51" height="51" rx="12" transform="translate(1378 854)"/><path class="b" d="M28.835,3a13.791,13.791,0,0,1-3.973,1.936,5.668,5.668,0,0,0-9.945,3.8V10A13.487,13.487,0,0,1,3.53,4.268S-1.53,15.655,9.856,20.716A14.727,14.727,0,0,1,1,23.246c11.387,6.326,25.3,0,25.3-14.55a5.693,5.693,0,0,0-.1-1.05A9.767,9.767,0,0,0,28.835,3Z" transform="translate(1389 865.01)"/></g></svg>