<svg xmlns="http://www.w3.org/2000/svg" width="51" height="51" viewBox="0 0 51 51"><defs><style>.a{fill:#fec562;}.b{fill:#fff;}</style></defs><g transform="translate(-189 -1614)"><rect class="a" width="51" height="51" rx="12" transform="translate(189 1614)"/><g transform="translate(200 1534.488)"><g transform="translate(0 96.512)"><g transform="translate(0 0)"><path class="b" d="M16.879,96.512H3.265A3.274,3.274,0,0,0,0,99.777v11a3.274,3.274,0,0,0,3.265,3.265H16.879a3.274,3.274,0,0,0,3.265-3.265v-11A3.253,3.253,0,0,0,16.879,96.512Z" transform="translate(0 -96.512)"/></g></g><g transform="translate(21.776 98.255)"><g transform="translate(0 0)"><path class="b" d="M347.152,123.9a1.663,1.663,0,0,0-.555.229l-5.093,2.938v7.574l5.126,2.938a1.941,1.941,0,0,0,2.677-.718,1.994,1.994,0,0,0,.261-.979V125.793A1.965,1.965,0,0,0,347.152,123.9Z" transform="translate(-341.504 -123.847)"/></g></g></g></g></svg>