<svg xmlns="http://www.w3.org/2000/svg" xmlns:xlink="http://www.w3.org/1999/xlink" width="623.961" height="428.047" viewBox="0 0 623.961 428.047"><defs><style>.a,.e{mix-blend-mode:multiply;}.a,.e,.g{isolation:isolate;}.a{fill:url(#a);}.b{fill:#d9d3d3;opacity:0.27;}.c{fill:#177c87;}.d{fill:#f3ffff;}.e{fill:#959595;}.f{fill:#fcc13f;}.g{fill:#5c5c5c;mix-blend-mode:screen;}.h{fill:#f7a491;}.i{fill:#2d2861;}.j{fill:#352e73;}.k{fill:#fe875e;}.l{fill:#1ba7b6;}.m{fill:#f8a492;}</style><linearGradient id="a" x1="0.506" y1="-0.023" x2="0.498" y2="0.93" gradientUnits="objectBoundingBox"><stop offset="0" stop-color="#98e4ec"/><stop offset="1" stop-color="#feffff"/></linearGradient></defs><g transform="translate(-1104.039 -269)"><g transform="translate(-429.05 -275.466)"><path class="a" d="M1584.6,1006.827c-87.887-71.358-40.154-140.479-24.174-185.978,19.6-55.81-52.081-139.087,24.174-176.818,89.492-44.281,194.723-64.646,340.3,6.313s217.186,99.5,230.539,203.9-60.643,152.582-60.643,152.582H1584.6Z" transform="translate(0 -39.046)"/><g transform="translate(1560.426 961.44)"><path class="b" d="M5.537,0H570.33a5.536,5.536,0,0,1,5.536,5.536v0a5.536,5.536,0,0,1-5.536,5.536H5.536A5.536,5.536,0,0,1,0,5.537v0A5.537,5.537,0,0,1,5.537,0Z" transform="translate(575.867 11.073) rotate(180)"/></g><g transform="translate(1606.044 544.466)"><path class="c" d="M2111.329,544.466H1772.561c-14.469,0-26.2,10.832-26.2,24.194V785.207c0,13.362,11.73,24.195,26.2,24.195H1807.7l-4.752,64.616,63.127-64.616h245.256c14.47,0,26.2-10.833,26.2-24.195V568.66C2137.529,555.3,2125.8,544.466,2111.329,544.466Z" transform="translate(-1746.362 -544.466)"/><path class="d" d="M1956.1,962.63h-56.4a6.755,6.755,0,0,1-6.755-6.755h0a6.755,6.755,0,0,1,6.755-6.755h56.4a6.755,6.755,0,0,1,6.754,6.755h0A6.754,6.754,0,0,1,1956.1,962.63Z" transform="translate(-1842.807 -810.697)"/><path class="d" d="M2367.4,962.63H2181.189a6.754,6.754,0,0,1-6.755-6.755h0a6.755,6.755,0,0,1,6.755-6.755H2367.4a6.754,6.754,0,0,1,6.754,6.755h0A6.754,6.754,0,0,1,2367.4,962.63Z" transform="translate(-2028.001 -810.697)"/><path class="d" d="M2039.114,1066.844H1899.707a6.755,6.755,0,0,1-6.755-6.755h0a6.755,6.755,0,0,1,6.755-6.755h139.406a6.755,6.755,0,0,1,6.756,6.755h0A6.755,6.755,0,0,1,2039.114,1066.844Z" transform="translate(-1842.807 -879.262)"/><path class="d" d="M2182.2,858.415h-282.5a6.755,6.755,0,0,1-6.755-6.755h0a6.755,6.755,0,0,1,6.755-6.755h282.5a6.754,6.754,0,0,1,6.754,6.755h0A6.754,6.754,0,0,1,2182.2,858.415Z" transform="translate(-1842.807 -742.132)"/><path class="d" d="M2519.333,1066.844H2412.12a6.755,6.755,0,0,1-6.755-6.755h0a6.755,6.755,0,0,1,6.755-6.755h107.212a6.755,6.755,0,0,1,6.754,6.755h0A6.754,6.754,0,0,1,2519.333,1066.844Z" transform="translate(-2179.935 -879.262)"/><path class="d" d="M2182.2,1171.06h-282.5a6.755,6.755,0,0,1-6.755-6.755h0a6.755,6.755,0,0,1,6.755-6.755h282.5a6.754,6.754,0,0,1,6.754,6.755h0A6.755,6.755,0,0,1,2182.2,1171.06Z" transform="translate(-1842.807 -947.828)"/><g transform="translate(50.145 28.548)"><path class="e" d="M2635.061,627.921l7.856,15.918,17.566,2.553-12.711,12.39,3,17.5-15.711-8.26-15.711,8.26,3-17.5-12.712-12.39,17.567-2.553Z" transform="translate(-2364.477 -627.921)"/><path class="f" d="M1918.374,627.921l7.856,15.918,17.566,2.553-12.711,12.39,3,17.5-15.712-8.26-15.712,8.26,3-17.5-12.711-12.39,17.566-2.553Z" transform="translate(-1892.952 -627.921)"/><path class="g" d="M1947.75,698.441a28.938,28.938,0,0,0-24.627,13.83l-1.784,10.4,15.711-8.26,15.712,8.26-3-17.5,5.8-5.653A28.709,28.709,0,0,0,1947.75,698.441Z" transform="translate(-1911.629 -674.318)"/><path class="f" d="M2097.546,627.921l7.856,15.918,17.566,2.553-12.711,12.39,3,17.5-15.711-8.26-15.712,8.26,3-17.5-12.712-12.39,17.566-2.553Z" transform="translate(-2010.833 -627.921)"/><path class="g" d="M2126.922,698.441a28.937,28.937,0,0,0-24.627,13.83l-1.784,10.4,15.712-8.26,15.711,8.26-3-17.5,5.8-5.653A28.706,28.706,0,0,0,2126.922,698.441Z" transform="translate(-2029.51 -674.318)"/><path class="f" d="M2276.718,627.921l7.856,15.918,17.566,2.553-12.711,12.39,3,17.5-15.712-8.26-15.712,8.26,3-17.5-12.711-12.39,17.566-2.553Z" transform="translate(-2128.715 -627.921)"/><path class="g" d="M2306.094,698.441a28.939,28.939,0,0,0-24.627,13.83l-1.784,10.4,15.712-8.26,15.712,8.26-3-17.5,5.8-5.653A28.709,28.709,0,0,0,2306.094,698.441Z" transform="translate(-2147.391 -674.318)"/><path class="e" d="M2455.89,627.921l7.856,15.918,17.566,2.553-12.711,12.39,3,17.5-15.711-8.26-15.712,8.26,3-17.5-12.711-12.39,17.566-2.553Z" transform="translate(-2246.596 -627.921)"/></g><g transform="translate(372.427 99.82)"><path class="h" d="M3138.591,1698.2s2.45,2.425,2.506,3.314.217,10.419-.783,11.308-3.939,1.52-2.995,2.521c.715.756,6.208.594,9.849.392,1.063-.06,2.4-8.655,2.816-9.917.611-1.835,2.814-5.829,2.259-7.107-.271-.623-2.282-2.042-4.108-3.238a16.819,16.819,0,0,1-3.758-4.056Z" transform="translate(-3033.811 -1398.893)"/><path class="h" d="M3027.813,1728.4s2.194,6.281,2.2,6.3c.163.995.8,3.453.8,4.358,0,3.4-15.117-2.884-11.729-4.391a3.634,3.634,0,0,0,1.369-2.381,8.034,8.034,0,0,0-1.273-4.016Z" transform="translate(-2955.818 -1423.134)"/><g transform="translate(44.036 186.522)"><path class="i" d="M2966.537,1381.536s-1.139,10.391-1.139,10.558c0,18.212-2.125,53.784-1.448,57.208,1.651,8.351,19.7,53.8,19.7,53.8l9.351-1.336-12.525-53.685,4.609-20.529,6.521-40.581Z" transform="translate(-2963.816 -1381.536)"/><path class="j" d="M3018.091,1392.049l1.823,10.671,4.935,43.913L3049,1491.2s-3.631,5.576-7.53,6.453l-34.28-45.039-18.578-56.385.652-12.526Z" transform="translate(-2980.129 -1382.959)"/></g><path class="h" d="M2941.276,1029.748a23.252,23.252,0,0,1-1.49,2.108s2.729,29.217,2.946,31.045l8.3,12.57-9.3,6.829s-9.479-15.18-9.566-15.92.3-22.617.3-22.617.7-11.353.7-11.918-1.67-4.225-2-5.7a47.935,47.935,0,0,1-.392-5.568l.7-1,3.228-.707,2.283.261s5.272,2.131,5.479,2.806a35.3,35.3,0,0,1-.489,5.774A11.332,11.332,0,0,1,2941.276,1029.748Z" transform="translate(-2898.042 -956.409)"/><path class="k" d="M2947.071,1033.06a9.868,9.868,0,0,1-1.326,2.2c-.8.957-2.391.718-3.326-.522a8.323,8.323,0,0,1-1.282-2.479Z" transform="translate(-2904.859 -965.214)"/><path class="f" d="M2890.529,836.273l-1.568,26.122,20.629,16.1-25.328,6.581-8.938,24.6-14.085-22.055-26.153-.9,16.623-20.211-7.226-25.151,24.359,9.563Z" transform="translate(-2835.086 -836.273)"/><path class="g" d="M2886.609,938.717a42.663,42.663,0,0,0-41.638-.28l-9.884,12.018,26.153.9,14.085,22.055,8.938-24.6,11.555-3A42.319,42.319,0,0,0,2886.609,938.717Z" transform="translate(-2835.087 -900.011)"/><path class="h" d="M2956.579,1025.508c-.038-.638.065-1.974.065-1.974s-1.352-2.645-1.044-2.822c1.077-.619,3.185,2.36,3.185,2.36S2956.7,1027.575,2956.579,1025.508Z" transform="translate(-2914.345 -957.564)"/><path class="h" d="M2930.226,1021.8s-1.463-5.484-.833-7.03c.4-.991,5.826-3.132,6.522-2.175.635.873-4.571,2.683-4.414,2.893.261.348,3.935-2.153,4.609-1.675.756.537-3.546,3.153-3.348,3.567.125.262,2.531-2.241,2.782-1.131S2930.226,1021.8,2930.226,1021.8Z" transform="translate(-2897.029 -952.119)"/><path class="l" d="M2957.935,1237.844l1.9-25.963h0c.61-6.41.846-11.528.327-13.375-1.105-3.931-9.175-17.137-9.175-17.137s7.74-8.611,13.219-8.611c0,0,6.078,11.707,13.3,12.74s5.668,1.077,8.608,1.387a34.289,34.289,0,0,1,9.361,2.017c5.515,2.3,1.363,22.949.734,26.308-.953,5.078.829,47.85.829,47.85s-15.826,3.563-40.093-8.317Z" transform="translate(-2911.338 -1057.654)"/><path class="h" d="M3029.639,1179.565l1.714,11.569s-6.345,13.478-10.152,12.3c-3.195-.991-1.19-13.329-1.19-13.329s1.7-6.177,1.179-9.414S3029.639,1179.565,3029.639,1179.565Z" transform="translate(-2956.344 -1061.687)"/><path class="k" d="M3031.536,1183.066a25.4,25.4,0,0,1-7.392,2.223,16.356,16.356,0,0,0,.174-4.6c-.241-1.494,1.541-1.847,3.529-1.8,2.6.238,4.92.671,4.92.671l.33,2.224A5.438,5.438,0,0,1,3031.536,1183.066Z" transform="translate(-2959.472 -1061.69)"/><path class="h" d="M3036.038,1129.9c.27,0-2.582,12.925-6.993,15.148s-10.993,1.064-12.228-2.416c-1.365-3.85,3.616-17.035,9.822-18.709S3036.038,1129.9,3036.038,1129.9Z" transform="translate(-2954.501 -1025.366)"/><path class="f" d="M3056.257,1264.492l-4.277,25.817,18.842,18.159-25.875,3.91-11.448,23.532-11.714-23.4-25.918-3.616,18.635-18.372-4.57-25.767,23.232,12.046Z" transform="translate(-2940.868 -1118.008)"/><path class="g" d="M3048.331,1360.55a42.662,42.662,0,0,0-41.383-4.61l-11.081,10.924,25.918,3.616,11.715,23.4,11.448-23.532,11.8-1.784A42.3,42.3,0,0,0,3048.331,1360.55Z" transform="translate(-2940.867 -1175.978)"/><path class="m" d="M3107.4,1282.359s5.652,7.656,6,9-2.131,33.143-2.261,35.949c0,0,1.043,3.392,1.63,5.546s.848,3.751.554,4.175-1.206.13-1.565.946-1.4.685-1.728.848-1.288,1.37-1.647,1.337a2.327,2.327,0,0,0-1.255.1,2.109,2.109,0,0,1-1.565.6,1.978,1.978,0,0,1-1.1-.549s.576-5.845.152-5.829a2.751,2.751,0,0,0-1.647.865c-.146.358-.081,1.159-.228,1.517a.946.946,0,0,1-1.076.554c-.44-.147-.375-2.153-.375-2.153a6.56,6.56,0,0,1,.652-2.593c2.034-3.334,2.476-2.868,2.739-3.295.131-.212-.032-8.449-.032-8.449s-.815-23.4-.9-24.656l-5.957-8.83Z" transform="translate(-3007.928 -1129.763)"/><path class="l" d="M3087.664,1241.344l-11.915,8.961s-6.507-9.816-10-13.31c-4.376-4.377,1.774-18.278,4.414-17.028C3076.654,1223.041,3087.664,1241.344,3087.664,1241.344Z" transform="translate(-2985.84 -1088.662)"/><path class="i" d="M3046.137,1106.109a14.593,14.593,0,0,1,5.686,6.7c1.654.838,3.656,2.65,4.617,7.533,1.181,6-3.019,10.631-7.472,12.023s-5.205,4.538-5.205,4.538l-.441-3.385a13.641,13.641,0,0,1,2.48-4.421c1.49-1.475-.705-3.624-.9-5.377-.149-1.349.782-3.971.581-6.185l-.54-1.833s-1.766-2.811-4.374-3.159S3041.615,1103.325,3046.137,1106.109Z" transform="translate(-2969.706 -1013.449)"/><path class="h" d="M3052.428,1161.055c-.576,1.493-.341,2.974.526,3.31s2.038-.6,2.615-2.1.341-2.975-.527-3.31S3053.005,1159.563,3052.428,1161.055Z" transform="translate(-2977.873 -1048.531)"/><path class="i" d="M3146.121,1703.1s-5.649,16.12-7.86,16.9c-.587.206-3.4.73-3.935,1.993a5.5,5.5,0,0,0,0,1.651H3146.1s1.489-7.1,2.078-10.223c0,0,3.116-7.625,2.771-8.318S3146.121,1703.1,3146.121,1703.1Z" transform="translate(-3031.917 -1406.579)"/><path class="i" d="M3009.144,1752.415l-1.731-5.543s-3.636,1.559-5.454,1.3a54.551,54.551,0,0,1-5.367-1.3c-7.256,2.421-13.2,3.6-12.12,5.543h24.672Z" transform="translate(-2933.286 -1435.377)"/></g></g></g></g></svg>