<svg xmlns="http://www.w3.org/2000/svg" width="28.307" height="28.307" viewBox="0 0 28.307 28.307"><defs><style>.a{fill:#1ba7b6;}</style></defs><g transform="translate(0 0)"><path class="a" d="M27.127,12.974a1.18,1.18,0,0,0-1.179,1.179,11.794,11.794,0,1,1-3.425-8.31A1.179,1.179,0,1,0,24.2,4.181a14.153,14.153,0,1,0,4.11,9.972A1.18,1.18,0,0,0,27.127,12.974Z" transform="translate(0 0)"/></g><g transform="translate(8.256 8.256)"><path class="a" d="M122.615,116.718h-3.538v-3.538a1.179,1.179,0,0,0-2.359,0v3.538h-3.538a1.179,1.179,0,0,0,0,2.359h3.538v3.538a1.179,1.179,0,0,0,2.359,0v-3.538h3.538a1.179,1.179,0,0,0,0-2.359Z" transform="translate(-112 -112)"/></g></svg>