<svg xmlns="http://www.w3.org/2000/svg" width="107.208" height="107.426" viewBox="0 0 107.208 107.426"><defs><style>.a{fill:#177c87;}.b{fill:#fec562;}</style></defs><g transform="translate(0 0.05)"><g transform="translate(0 -0.05)"><path class="a" d="M27.152,99.855l1.975-.552a3.572,3.572,0,0,0,2.479-4.4L9.022,14.083a4.465,4.465,0,0,0-5.5-3.1l-.255.071a4.465,4.465,0,0,0-3.1,5.5L22.75,97.376a3.572,3.572,0,0,0,4.4,2.479Z" transform="translate(0 7.439)"/><path class="b" d="M101.183,51.766A85.567,85.567,0,0,1,81.5,38.225a1.759,1.759,0,0,1-.5-1.794A253.16,253.16,0,0,0,87.494,2.8c.222-1.887-.8-2.442-1.868-1.147C64.574,26.83,28.15-2.953,6.47,19.93a7.383,7.383,0,0,1,.61,1.535L21.731,73.927C43.449,51.322,79.743,80.92,100.757,55.8c1.073-1.295,1.276-3.663.425-4.033Z" transform="translate(5.498 -0.95)"/></g></g></svg>