<svg xmlns="http://www.w3.org/2000/svg" width="122.379" height="117.058" viewBox="0 0 122.379 117.058"><defs><style>.a{fill:#177c87;}.b{fill:#fec562;}</style></defs><g transform="translate(-1479.622 -257.704)"><g transform="translate(1479.999 257.056)"><g transform="translate(0.001 0.648)"><path class="a" d="M122,60.8a11.808,11.808,0,0,0-11.789-11.793c-.282,0-.557.05-.831.065a23.453,23.453,0,0,0,1.807-9.208c0-7.873-10.066-25.934-16.635-31.905a54.279,54.279,0,0,1-11.4,1.193A54.157,54.157,0,0,1,71.437,7.89c-6.489,5.243-17.855,23.86-17.855,31.981a21.932,21.932,0,0,0,.351,3.916c-1.96-.133-3.954-.21-5.986-.21a70.644,70.644,0,0,0-15.11,1.617c-.141-1.742-.24-2.806-.24-2.806H1.37a238.777,238.777,0,0,0,0,51.06H32.592s.275-2.985.572-7.221c4.648-.782,9.406.446,14.9,3.862a45.456,45.456,0,0,0,24.852,7.248,41.721,41.721,0,0,0,24.249-7.454l.008.008a2.865,2.865,0,0,0,.259-.206,44.878,44.878,0,0,0,5.391-4.453c1.319-1.35,3.107-3.077,5.788-5.7,9-8.846,10.111-10.6,10.111-10.6h-.034A11.63,11.63,0,0,0,122,60.8ZM75.608,30.118a6.126,6.126,0,0,1,1.216-1.868,6.77,6.77,0,0,1,1.861-1.361,7.514,7.514,0,0,1,2.333-.728V24.113h4.339v2.36a7.267,7.267,0,0,1,1.735.736v-.923h4.343v6.5H87.065c-.351-.389-.7-.736-1.026-1.033a5.3,5.3,0,0,0-1.052-.743,5.364,5.364,0,0,0-1.216-.446,6.962,6.962,0,0,0-1.563-.156,2.941,2.941,0,0,0-2,.618,1.8,1.8,0,0,0-.7,1.334q0,2.013,4.347,2.665a12.512,12.512,0,0,1,4.289,1.312,8.408,8.408,0,0,1,2.429,1.986,5.373,5.373,0,0,1,1.071,2.108,8.061,8.061,0,0,1,.236,1.681,5.285,5.285,0,0,1-.5,2.3,5.787,5.787,0,0,1-1.361,1.876,6.909,6.909,0,0,1-2.051,1.3,8.308,8.308,0,0,1-2.6.587v1.952H81.037V47.6c-.236-.1-.442-.2-.671-.3a6.743,6.743,0,0,1-.633-.29v.953H75.395v-6.5h4.339a10.644,10.644,0,0,0,1.1,1.071,5.234,5.234,0,0,0,1.117.736,4.776,4.776,0,0,0,1.266.438,9.1,9.1,0,0,0,1.6.13,3.667,3.667,0,0,0,1.952-.477,1.423,1.423,0,0,0,.774-1.254,1.77,1.77,0,0,0-.4-1.136,3.6,3.6,0,0,0-1.033-.82,6.329,6.329,0,0,0-1.388-.538c-.511-.133-1.01-.244-1.51-.328A13.5,13.5,0,0,1,79,38.041a8.321,8.321,0,0,1-2.433-1.826,5.121,5.121,0,0,1-1.117-2.032,7.367,7.367,0,0,1-.263-1.838A5.472,5.472,0,0,1,75.608,30.118Zm39.229,35.3c-1.578,1.563-8.251,8.445-10.066,10.222-4.682,4.594-6.867,6.749-7.889,7.938l-.027-.019c-.717.644-1.468,1.22-2.234,1.784a39.375,39.375,0,0,1-43.58-.1H51c-5.25-3.2-11.4-5.162-17.485-4.564.244-4.2.438-8.8.438-12.757,0-5.5-.381-12.243-.728-17.424a67.078,67.078,0,0,1,14.706-1.624c15.7,0,29.587,5.189,38.093,13.322a6.292,6.292,0,0,1-4.686,10.523c-.122,0-.248-.038-.393-.046l-.015.069c-3.252-.111-8.342-1.476-16.936-4.766l-1.952,5.124c9.086,3.454,15.072,5.018,19.315,5.124v-.038A11.814,11.814,0,0,0,92.628,69.8v.008c1.838-3.054,8.72-9.414,12.628-12.891v.008a1.486,1.486,0,0,1,.111-.111c.721-.641,1.35-1.19,1.8-1.575a5.208,5.208,0,0,1,3.046-.743,6.328,6.328,0,0,1,6.314,6.322A7.858,7.858,0,0,1,114.838,65.421Z" transform="translate(-0.001 19.721)"/><path class="a" d="M24.458,24.385A52.3,52.3,0,0,0,34.95,25.644a45.028,45.028,0,0,0,8.605-.736c3.016-1.483,9.795-17.119,5.818-22.633C44.928-3.875,37.5,9.493,34.066,8.12,30.65,6.751,23.36-.379,18.552,2.527,14.373,5.055,21.171,21.941,24.458,24.385Z" transform="translate(48.469 -0.648)"/></g></g><path class="b" d="M7594.841,1793.613H7627s3.165,35.8-.464,51.774c-6.105.133-31.29.51-31.29.51a206.392,206.392,0,0,1-1.628-24.677C7593.622,1808.446,7594.841,1793.613,7594.841,1793.613Z" transform="translate(-6114 -1474)"/></g></svg>