<svg xmlns="http://www.w3.org/2000/svg" width="467.415" height="348.325" viewBox="0 0 467.415 348.325"><defs><style>.a{fill:#ebebeb;}.b{fill:#e0e0e0;}.c{fill:#f5f5f5;}.d,.j,.o{fill:#fff;}.e{fill:#263238;}.f{fill:#ce7a63;}.g,.i,.j{opacity:0.2;}.h,.i{fill:#1ba7b6;}.k{fill:#f9a81b;}.l{fill:#fba613;}.m{fill:#fec562;}.n,.o{opacity:0.3;}.p{fill:#d9d3d3;}.q,.r{fill:#407bff;}.q{opacity:0.5;}</style></defs><g transform="translate(0 -54.953)"><g transform="translate(0 54.953)"><rect class="a" width="467.415" height="0.234" transform="translate(0 306.105)"/><rect class="a" width="30.964" height="0.234" transform="translate(332.176 313.126)"/><rect class="a" width="41.157" height="0.234" transform="translate(241.161 321.036)"/><rect class="a" width="41.86" height="0.234" transform="translate(364.075 321.807)"/><rect class="a" width="40.378" height="0.234" transform="translate(50.19 312.892)"/><rect class="a" width="5.92" height="0.234" transform="translate(98.892 312.892)"/><rect class="a" width="87.571" height="0.234" transform="translate(124.053 316.84)"/><path class="a" d="M224.058,319.367H43.543a5.342,5.342,0,0,1-5.336-5.336V60.288a5.342,5.342,0,0,1,5.336-5.335H224.058a5.342,5.342,0,0,1,5.335,5.335V314.031A5.342,5.342,0,0,1,224.058,319.367ZM43.543,55.187a5.107,5.107,0,0,0-5.1,5.1V314.031a5.108,5.108,0,0,0,5.1,5.1H224.058a5.107,5.107,0,0,0,5.1-5.1V60.288a5.107,5.107,0,0,0-5.1-5.1Z" transform="translate(-2.49 -54.953)"/><path class="a" d="M440.354,319.367H259.84a5.342,5.342,0,0,1-5.335-5.336V60.288a5.341,5.341,0,0,1,5.335-5.335H440.354a5.342,5.342,0,0,1,5.337,5.335V314.031A5.343,5.343,0,0,1,440.354,319.367ZM259.84,55.187a5.107,5.107,0,0,0-5.1,5.1V314.031a5.107,5.107,0,0,0,5.1,5.1H440.354a5.108,5.108,0,0,0,5.1-5.1V60.288a5.108,5.108,0,0,0-5.1-5.1Z" transform="translate(-16.586 -54.953)"/><g transform="translate(50.19 29.118)"><g transform="translate(0 0)"><rect class="b" width="68.799" height="79.966"/><rect class="c" width="70.589" height="79.966" transform="translate(2.327)"/><rect class="d" width="67.363" height="58.762" transform="translate(67.002 6.302) rotate(90)"/><g transform="translate(96.515 46.678)"><rect class="b" width="68.799" height="79.966"/><rect class="c" width="70.589" height="79.966" transform="translate(2.327)"/><rect class="d" width="67.363" height="58.762" transform="translate(67.002 6.302) rotate(90)"/></g></g></g></g><g transform="translate(52.454 382.107)"><ellipse class="c" cx="181.253" cy="10.585" rx="181.253" ry="10.585"/></g><g transform="translate(226.33 100.519)"><path class="e" d="M292.571,161.705l-.325,1.1-.3.942c-.2.623-.433,1.2-.652,1.8-.448,1.174-.949,2.316-1.466,3.44a60.614,60.614,0,0,1-3.511,6.51c-.641,1.052-1.326,2.076-2.015,3.1-.723,1-1.437,2-2.211,2.963a63,63,0,0,1-4.885,5.557l-.363.377a5.738,5.738,0,0,1-1.791,1.249,13.819,13.819,0,0,1-6.184,1.155,15.759,15.759,0,0,1-5.366-1.259,19.574,19.574,0,0,1-4.015-2.3,28.575,28.575,0,0,1-3.145-2.67,39.6,39.6,0,0,1-4.827-5.847c-.695-1.011-1.328-2.05-1.937-3.1-.609-1.073-1.132-2.089-1.694-3.3a3.742,3.742,0,0,1,5.919-4.336l.246.226,2.285,2.092c.775.709,1.57,1.387,2.36,2.046a41.972,41.972,0,0,0,4.766,3.5,13.508,13.508,0,0,0,4.281,1.9,2.19,2.19,0,0,0,1.187-.012.627.627,0,0,0,.3-.281l-2.153,1.626c1.184-1.607,2.333-3.231,3.4-4.919s2.059-3.417,3.007-5.169,1.815-3.55,2.613-5.358c.414-.9.775-1.812,1.153-2.705l.946-2.451.26-.674a7.461,7.461,0,0,1,14.117,4.8Z" transform="translate(-242.462 -106.852)"/><path class="f" d="M250.222,172.068l-6.318-2.206-1.324-8.65s10.588,2.8,10.542,7.908Z" transform="translate(-242.14 -107.444)"/><g transform="translate(22.565)"><path class="e" d="M290.019,123.221c-4.128-1.45-9.816-6.387-7.581-12.774,1.694-4.841,8-5.271,10.479-3.818s2.581-1.528,5.749-2.671,5.4,1.736,7.01,3.242,3.48.364,5.869.467,4.087,3.222,2.753,5.505c-2.337,4,1.53,6.568-1.4,9.661-4.307,4.54-.969,8.985-7.007,13.5C302.2,139.1,291.711,134.024,290.019,123.221Z" transform="translate(-267.269 -103.696)"/><path class="e" d="M290.372,128.321a1.132,1.132,0,0,1-.5.161,1.172,1.172,0,0,1-1.27-1.069,11.666,11.666,0,0,1,3.85-10.011,1.176,1.176,0,0,1,1.455,1.848h0a9.312,9.312,0,0,0-2.964,7.961A1.174,1.174,0,0,1,290.372,128.321Z" transform="translate(-267.7 -104.573)"/><path class="d" d="M283.043,152.216s-8.295,21.221-.417,60.741h37.589c.259-5.77-3.367-33.917,2.2-61.1a98.066,98.066,0,0,0-12.582-1.589,138.144,138.144,0,0,0-15.978,0A70.439,70.439,0,0,0,283.043,152.216Z" transform="translate(-267.093 -106.716)"/><path class="f" d="M309.256,131.035c-1.008,5.141-2.014,14.561,1.584,17.991,0,0-6.023,4.88-12.349,9.814a10.627,10.627,0,0,1-3.629-9.813c5.732-1.369,5.585-5.622,4.586-9.617Z" transform="translate(-268.102 -105.478)"/><path class="g" d="M305.587,134.69l-5.805,4.954a16.359,16.359,0,0,1,.493,2.835c1.886,1.775,5.2-2.72,5.431-5.014A7.69,7.69,0,0,0,305.587,134.69Z" transform="translate(-268.432 -105.716)"/><path class="f" d="M308.839,121.1c.259,6.97.765,11.036-2.383,14.938-4.735,5.868-13.6,3.54-15.936-3.211-2.1-6.077-2.173-16.455,4.337-19.881A9.512,9.512,0,0,1,308.839,121.1Z" transform="translate(-267.746 -104.225)"/><path class="e" d="M308.607,127.35c-1.915,3.744-4.118-8.089-3.565-10.063-6.772,1.87-17.167,1.257-16.367-3.479.9-5.332,7.146-5.541,14.012-4.883C314.06,110.016,310.685,123.286,308.607,127.35Z" transform="translate(-267.706 -104.02)"/><path class="e" d="M306.33,128.762a1.14,1.14,0,0,1-.519-.1,1.173,1.173,0,0,1-.606-1.546,11.663,11.663,0,0,1,8.167-6.953,1.176,1.176,0,0,1,.4,2.318h0a9.311,9.311,0,0,0-6.41,5.576A1.174,1.174,0,0,1,306.33,128.762Z" transform="translate(-268.779 -104.768)"/><path class="f" d="M313.507,126.775a7.032,7.032,0,0,1-2.735,4.183c-1.815,1.268-3.263-.294-3.21-2.485.048-1.972,1.05-5.008,3.09-5.395C312.661,122.7,313.965,124.674,313.507,126.775Z" transform="translate(-268.939 -104.956)"/><path class="e" d="M278.621,406.264c-.871.215-1.742.3-2.116-.021a.628.628,0,0,1-.151-.709.84.84,0,0,1,.422-.5c1.059-.587,3.75.184,3.864.218a.164.164,0,0,1,.117.147.169.169,0,0,1-.1.164A12.3,12.3,0,0,1,278.621,406.264Zm-1.384-1.056a1.211,1.211,0,0,0-.3.114.511.511,0,0,0-.263.3c-.067.228,0,.317.052.365.419.363,2.138-.051,3.359-.541A7.4,7.4,0,0,0,277.237,405.207Z" transform="translate(-266.903 -123.32)"/><path class="e" d="M280.722,405.434a.19.19,0,0,1-.069,0c-.906-.167-2.874-1.241-2.929-2.042-.013-.189.063-.445.494-.6a1.2,1.2,0,0,1,.957.057c1.03.5,1.641,2.289,1.666,2.365a.166.166,0,0,1-.032.163A.172.172,0,0,1,280.722,405.434Zm-2.3-2.355a.905.905,0,0,0-.1.029c-.282.1-.275.22-.271.259.033.48,1.406,1.367,2.36,1.665a3.831,3.831,0,0,0-1.386-1.88A.867.867,0,0,0,278.42,403.079Z" transform="translate(-266.995 -123.184)"/><path class="f" d="M291.369,406.877l-7.043,1.036.228-16.131,7.043-1.036Z" transform="translate(-267.425 -122.403)"/><path class="e" d="M282.092,404.646h9.234a.553.553,0,0,1,.558.478l.895,6.219a1.112,1.112,0,0,1-1.1,1.244c-2.752-.047-6.722-.208-10.187-.208-4.052,0-7.682.222-12.433.222-2.873,0-3.4-2.725-2.219-3.167,5.317-1.989,8.153-2.327,13.529-4.242A5.385,5.385,0,0,1,282.092,404.646Z" transform="translate(-266.247 -123.309)"/><g transform="translate(17.011 268.346)"><path class="g" d="M284.563,391.786l-.119,8.315,7.046-1.036.119-8.315Z" transform="translate(-284.444 -390.75)"/></g><path class="e" d="M287.383,404.778c-.053-2.986.883-7.774-6.556-4.847-4.431,1.744,1.579,6.853,1.579,6.853Z" transform="translate(-267.091 -122.943)"/><g transform="translate(12.657 106.234)"><path class="h" d="M282.663,217.336s-3.761,56.63-2.683,76.76c1.023,19.084,1.6,73.213,1.738,87.407a3.041,3.041,0,0,0,3.451,2.982l4.98-.672a3.043,3.043,0,0,0,2.613-2.63c3.221-25.058,7.041-63.719,7.876-84.423.951-23.62,6.746-79.42,6.746-79.42Z" transform="translate(-279.786 -217.336)"/><path class="i" d="M282.663,217.336s-3.761,56.63-2.683,76.76c1.023,19.084,1.6,73.213,1.738,87.407a3.041,3.041,0,0,0,3.451,2.982l4.98-.672a3.043,3.043,0,0,0,2.613-2.63c3.221-25.058,7.041-63.719,7.876-84.423.951-23.62,6.746-79.42,6.746-79.42Z" transform="translate(-279.786 -215.493)"/></g><path class="e" d="M332.9,405.283c-.82.367-1.661.608-2.087.356a.629.629,0,0,1-.274-.671.838.838,0,0,1,.325-.57c.938-.766,3.723-.485,3.84-.473a.166.166,0,0,1,.142.123.17.17,0,0,1-.066.179A12.3,12.3,0,0,1,332.9,405.283Zm-1.552-.793a1.26,1.26,0,0,0-.278.165.512.512,0,0,0-.2.346c-.025.237.054.313.116.35.477.282,2.095-.43,3.209-1.13A7.4,7.4,0,0,0,331.346,404.49Z" transform="translate(-270.436 -123.258)"/><path class="e" d="M334.813,404.108a.155.155,0,0,1-.068.015c-.921,0-3.048-.71-3.246-1.488-.046-.183-.018-.449.38-.677a1.193,1.193,0,0,1,.951-.115c1.1.307,2.022,1.961,2.061,2.031a.168.168,0,0,1-.079.234Zm-2.684-1.907c-.03.014-.06.029-.089.046-.26.15-.231.265-.221.3.118.467,1.627,1.095,2.619,1.218a3.835,3.835,0,0,0-1.7-1.6A.869.869,0,0,0,332.129,402.2Z" transform="translate(-270.498 -123.123)"/><path class="f" d="M345.889,403.619l-6.633,2.252-4.41-15.6,6.633-2.252Z" transform="translate(-270.718 -122.226)"/><path class="g" d="M301.436,238.97c-1.934,7.75-1.421,39.955.581,58.109.476-10.629,1.822-27.017,3.188-42.058Z" transform="translate(-268.461 -112.512)"/><path class="e" d="M336.076,402.959l9.087-1.643a.6.6,0,0,1,.665.365l2.388,5.888a1.032,1.032,0,0,1-.784,1.407c-2.72.444-6.666.994-10.076,1.61-3.987.721-4.018.952-8.693,1.8-2.827.511-4.007-2.044-2.951-2.685,4.75-2.88,3.969-3.082,8.8-5.9A5.1,5.1,0,0,1,336.076,402.959Z" transform="translate(-270.097 -123.092)"/><g transform="translate(64.131 265.801)"><path class="g" d="M334.849,390.279l2.272,8.039,6.636-2.253-2.272-8.039Z" transform="translate(-334.849 -388.027)"/></g><g transform="translate(28.868 106.236)"><path class="h" d="M297.127,217.338s4.845,56.632,8.575,76.763c3.587,19.364,19.828,74.539,24.618,87.081a3.041,3.041,0,0,0,3.788,1.8l4.8-1.566a3.04,3.04,0,0,0,2.047-3.469c-4.763-24.613-12.361-60.581-14.245-81.184-2.159-23.621-5.328-79.423-5.328-79.423Z" transform="translate(-297.127 -217.338)"/><path class="j" d="M297.127,217.338s4.845,56.632,8.575,76.763c3.587,19.364,19.828,74.539,24.618,87.081a3.041,3.041,0,0,0,3.788,1.8l4.8-1.566a3.04,3.04,0,0,0,2.047-3.469c-4.763-24.613-12.361-60.581-14.245-81.184-2.159-23.621-5.328-79.423-5.328-79.423Z" transform="translate(-297.127 -217.338)"/></g></g><path class="e" d="M312.534,149.038c3.672.04,12.5.2,13.358,3.47s-.078,8.57-1.246,11.685c1.714,4.752,1.169,11.763-.467,13.945,1.792,5.3.624,9.192-.467,11.062.857,2.1,1.636,8.1.311,11.062,1.091,4.207,2.335,11.264.39,12.63-2.648,1.86-9.688,2.8-14.659,1.627s-3.025-11.218-2.635-13.555c-2.181-2.882.156-11.529.156-11.529-1.091-2.415.545-11.452.545-11.452-1.325-2.181.39-14.022.39-14.022C306.806,161.545,306.186,148.969,312.534,149.038Z" transform="translate(-246.285 -106.651)"/><path class="e" d="M283.793,151.181c2.881-1.272,12.531-3.585,10.659-1.04-2.713,3.689-1.052,7.583-2.654,12.153,1.415,4.368.965,11.5-.385,14.05a16.768,16.768,0,0,1-.386,11.167c.708,1.911,1.351,7.734.257,10.992.9,3.962,1.645,11.951.039,13.754a8.256,8.256,0,0,1-9.594,1.958c-2.29-.957-3.311-8.58-2.18-11.211-2.222-4.847-.411-12.04-.411-12.04-2.148-3.739-.486-11.582-.486-11.582-2.129-6.959.486-14.646.486-14.646C277.98,162.636,279.2,153.209,283.793,151.181Z" transform="translate(-244.436 -106.648)"/><path class="e" d="M290.874,151.906a3.081,3.081,0,0,1-1.245-2.45,2.414,2.414,0,0,1,2.384-2.472,7.8,7.8,0,0,1,3.122.958c1.473.718,2.007,1.38,2.074,2.47s-2.605,4.894-4.073,3.99S291.736,152.838,290.874,151.906Z" transform="translate(-245.206 -106.516)"/><path class="g" d="M321.317,166.376c.729-3.15,2.58-2.87,4.422-1.58-.047.122-.084.243-.132.365,1.721,4.749,1.169,11.76-.467,13.948.1.3.2.6.281.888C323.13,177.8,319.952,172.322,321.317,166.376Z" transform="translate(-247.249 -107.619)"/><g transform="translate(50.669 66.45)"><path class="k" d="M320.029,174.779l-6.223,2.84L313.2,197.7,296.31,208.583l18.91,6.784,5.132,19.424,6.223-2.84,3.481-31.669Z" transform="translate(-296.31 -174.779)"/><g transform="translate(36.338 38.457)"><path class="l" d="M361.463,219.865l-6.223,2.84-20.059-1.122,8.39-5.667Z" transform="translate(-335.181 -215.917)"/></g><path class="m" d="M320.463,174.779l15.569,12.7,19.286-5.627-7.265,18.731,11.311,16.6L339.3,216.063l-12.3,15.888-5.132-19.424-18.91-6.784,16.887-10.883Z" transform="translate(-296.744 -174.779)"/></g><path class="f" d="M332.138,217.426,332,223.77l7.489-.42s1.006-3.978-3.292-6.736Z" transform="translate(-247.967 -111.055)"/><path class="f" d="M334.4,230.6l5.182-2.986-.094-3.792L332,224.24Z" transform="translate(-247.967 -111.525)"/><path class="e" d="M326.686,152.371c.61.56,1.065.994,1.575,1.486s.971.971,1.45,1.46c.955.977,1.871,1.988,2.776,3.015a79.186,79.186,0,0,1,5.153,6.511,54.825,54.825,0,0,1,4.5,7.477,28.046,28.046,0,0,1,2.958,9.674,13.018,13.018,0,0,1,.08,1.513l0,.778-.037.543-.161,2.13c-.164,1.386-.337,2.776-.57,4.12-.423,2.709-1.032,5.336-1.7,7.917a93.035,93.035,0,0,1-5.329,15,3.75,3.75,0,0,1-7.141-1.875l.012-.143c.4-4.941.926-9.974,1.214-14.853.185-2.442.259-4.869.313-7.232.036-1.189-.012-2.345-.019-3.5l-.071-1.691-.018-.411-.041-.177a2.231,2.231,0,0,0-.085-.389,19.082,19.082,0,0,0-2.094-4.667,55.147,55.147,0,0,0-3.755-5.374c-1.409-1.795-2.926-3.578-4.5-5.334-.783-.881-1.6-1.743-2.4-2.609l-1.215-1.279-1.15-1.192-.19-.2a7.476,7.476,0,0,1,10.441-10.694Z" transform="translate(-246.804 -106.74)"/><path class="e" d="M315.3,151.049c.95-.138,1.17-2.321.423-3.773-.6-1.17-2.8-1.011-4.769-.5a15.088,15.088,0,0,0-4.478,1.79c-1.976,1.092-1.256,2.417-.8,3.455s1.329,3.422,3.2,2.157S313.983,151.242,315.3,151.049Z" transform="translate(-246.218 -106.478)"/><path class="e" d="M340.645,402.23c-.143-2.983.649-7.8-6.7-4.647-4.378,1.876,1.784,6.8,1.784,6.8Z" transform="translate(-247.992 -122.782)"/><g transform="translate(0 47.049)"><path class="h" d="M242.847,154.025H252.89a1.394,1.394,0,0,1,1.25.976l5.251,18.676a.715.715,0,0,1-.7.975H248.647a1.393,1.393,0,0,1-1.25-.975L242.146,155A.716.716,0,0,1,242.847,154.025Z" transform="translate(-242.109 -154.025)"/><path class="f" d="M248.345,166.973l-2.1-7.323-3.661,1.46,1.324,8.651Z" transform="translate(-242.14 -154.392)"/><path class="n" d="M254.483,154.721h.014a.485.485,0,0,1,.437.341l5.242,18.644a.25.25,0,0,1-.245.341h-.014a.486.486,0,0,1-.437-.341l-5.242-18.644A.25.25,0,0,1,254.483,154.721Z" transform="translate(-242.898 -154.07)"/></g></g><g transform="translate(80.357 74.911)"><rect class="h" width="7.075" height="0.935" transform="translate(27.148)"/><path class="h" d="M86.894,86.9h-.935A10.606,10.606,0,0,1,96.552,76.3h12.712v.935H96.552A9.671,9.671,0,0,0,86.894,86.9Z" transform="translate(-85.959 -76.303)"/><rect class="h" width="125.014" height="32.813" rx="7.833" transform="translate(3.272 3.272)"/><path class="m" d="M139.988,92.056l1.608,3.259,3.6.523-2.6,2.537.614,3.582-3.217-1.691-3.217,1.691.614-3.582-2.6-2.537,3.6-.523Z" transform="translate(-89.141 -77.329)"/><path class="m" d="M155.608,92.056l1.608,3.259,3.6.523-2.6,2.537.614,3.582-3.217-1.691-3.217,1.691.614-3.582-2.6-2.537,3.6-.523Z" transform="translate(-90.159 -77.329)"/><path class="m" d="M171.228,92.056l1.608,3.259,3.6.523-2.6,2.537.614,3.582-3.217-1.691-3.217,1.691.614-3.582-2.6-2.537,3.6-.523Z" transform="translate(-91.177 -77.329)"/><path class="m" d="M186.848,92.056l1.608,3.259,3.6.523-2.6,2.537.615,3.582-3.217-1.691-3.217,1.691.614-3.582-2.6-2.537,3.6-.523Z" transform="translate(-92.195 -77.329)"/><path class="o" d="M202.468,94.169l.77,1.56a.933.933,0,0,0,.7.511l1.723.251-1.246,1.214a.934.934,0,0,0-.269.827l.294,1.715-1.541-.81a.934.934,0,0,0-.87,0l-1.54.81.294-1.715a.933.933,0,0,0-.268-.827l-1.246-1.214,1.722-.251a.935.935,0,0,0,.7-.511l.77-1.56m0-2.113-1.609,3.259-3.6.524,2.6,2.536-.614,3.582,3.217-1.691,3.217,1.691-.614-3.582,2.6-2.536-3.6-.524-1.608-3.259Z" transform="translate(-93.213 -77.329)"/><g transform="translate(14.845 8.448)"><circle class="j" cx="11.23" cy="11.23" r="11.23"/><path class="d" d="M122.474,96.706a9.268,9.268,0,1,1-9.268-9.269A9.2,9.2,0,0,1,122.474,96.706Z" transform="translate(-101.976 -85.477)"/><path class="e" d="M121.432,101.9a9.267,9.267,0,0,1-16.3,0,14.681,14.681,0,0,1,16.3,0Z" transform="translate(-102.054 -86.258)"/><path class="p" d="M117.692,93.672a4.128,4.128,0,1,1-4.128-4.129A4.128,4.128,0,0,1,117.692,93.672Z" transform="translate(-102.334 -85.614)"/></g><g transform="translate(3.272 82.147)"><rect class="h" width="18.707" height="0.935" transform="translate(91.381 35.15)"/><rect class="h" width="125.014" height="32.813" rx="7.833" transform="translate(0 0)"/><path class="m" d="M139.988,176.429l1.608,3.259,3.6.523-2.6,2.537.614,3.582-3.217-1.691-3.217,1.691.614-3.582-2.6-2.537,3.6-.523Z" transform="translate(-92.413 -164.975)"/><path class="m" d="M155.608,176.429l1.608,3.259,3.6.523-2.6,2.537.614,3.582-3.217-1.691-3.217,1.691.614-3.582-2.6-2.537,3.6-.523Z" transform="translate(-93.431 -164.975)"/><path class="m" d="M171.228,176.429l1.608,3.259,3.6.523-2.6,2.537.614,3.582-3.217-1.691-3.217,1.691.614-3.582-2.6-2.537,3.6-.523Z" transform="translate(-94.449 -164.975)"/><path class="m" d="M186.848,176.429l1.608,3.259,3.6.523-2.6,2.537.615,3.582-3.217-1.691-3.217,1.691.614-3.582-2.6-2.537,3.6-.523Z" transform="translate(-95.467 -164.975)"/><path class="m" d="M202.468,176.429l1.608,3.259,3.6.523-2.6,2.537.614,3.582-3.217-1.691-3.217,1.691.614-3.582-2.6-2.537,3.6-.523Z" transform="translate(-96.484 -164.975)"/><g transform="translate(6.922 0.525)"><circle class="j" cx="11.23" cy="11.23" r="11.23" transform="translate(0 15.882) rotate(-45)"/><path class="d" d="M122.474,181.079a9.268,9.268,0,1,1-9.268-9.269A9.2,9.2,0,0,1,122.474,181.079Z" transform="translate(-97.324 -165.198)"/><path class="q" d="M121.432,186.276a9.268,9.268,0,0,1-16.3,0,14.681,14.681,0,0,1,16.3,0Z" transform="translate(-97.402 -165.98)"/><path class="p" d="M117.692,178.045a4.128,4.128,0,1,1-4.128-4.128A4.128,4.128,0,0,1,117.692,178.045Z" transform="translate(-97.682 -165.336)"/></g></g><g transform="translate(3.272 42.709)"><rect class="h" width="125.014" height="32.813" rx="7.833"/><path class="h" d="M219.008,142.54l-7.853,13.6h19.631Z" transform="translate(-97.39 -123.329)"/><path class="m" d="M139.988,134.243,141.6,137.5l3.6.523-2.6,2.537.614,3.582-3.217-1.691-3.217,1.691.614-3.582-2.6-2.537,3.6-.523Z" transform="translate(-92.413 -122.788)"/><path class="m" d="M155.608,134.243l1.608,3.259,3.6.523-2.6,2.537.614,3.582-3.217-1.691-3.217,1.691.614-3.582-2.6-2.537,3.6-.523Z" transform="translate(-93.431 -122.788)"/><path class="o" d="M171.228,136.355l.769,1.561a.935.935,0,0,0,.7.51l1.723.251-1.246,1.215a.932.932,0,0,0-.269.827l.294,1.715-1.541-.81a.934.934,0,0,0-.87,0l-1.54.81.294-1.715a.934.934,0,0,0-.268-.827l-1.246-1.215,1.722-.251a.934.934,0,0,0,.7-.51l.77-1.561m0-2.112-1.609,3.259-3.6.523,2.6,2.537-.615,3.582,3.218-1.692,3.217,1.692-.614-3.582,2.6-2.537-3.6-.523-1.608-3.259Z" transform="translate(-94.449 -122.788)"/><path class="o" d="M186.848,136.355l.77,1.561a.932.932,0,0,0,.7.51l1.723.251-1.246,1.215a.932.932,0,0,0-.269.827l.294,1.715-1.541-.81a.935.935,0,0,0-.87,0l-1.54.81.294-1.715a.934.934,0,0,0-.268-.827l-1.246-1.215,1.722-.251a.933.933,0,0,0,.7-.51l.77-1.561m0-2.112-1.609,3.259-3.6.523,2.6,2.537-.614,3.582,3.217-1.692,3.217,1.692-.614-3.582,2.6-2.537-3.6-.523-1.608-3.259Z" transform="translate(-95.467 -122.788)"/><path class="o" d="M202.468,136.355l.77,1.561a.932.932,0,0,0,.7.51l1.723.251-1.246,1.215a.932.932,0,0,0-.269.827l.294,1.715-1.541-.81a.935.935,0,0,0-.87,0l-1.54.81.294-1.715a.931.931,0,0,0-.268-.827l-1.246-1.215,1.722-.251a.934.934,0,0,0,.7-.51l.77-1.561m0-2.112-1.609,3.259-3.6.523,2.6,2.537-.614,3.582,3.217-1.692,3.217,1.692-.614-3.582,2.6-2.537-3.6-.523-1.608-3.259Z" transform="translate(-96.484 -122.788)"/><g transform="translate(11.573 5.176)"><circle class="j" cx="11.23" cy="11.23" r="11.23"/><path class="d" d="M122.474,138.892a9.268,9.268,0,1,1-9.268-9.268A9.2,9.2,0,0,1,122.474,138.892Z" transform="translate(-101.976 -127.663)"/><path class="r" d="M121.432,144.089a9.267,9.267,0,0,1-16.3,0,14.681,14.681,0,0,1,16.3,0Z" transform="translate(-102.054 -128.445)"/><path class="p" d="M117.692,135.858a4.128,4.128,0,1,1-4.128-4.128A4.129,4.129,0,0,1,117.692,135.858Z" transform="translate(-102.334 -127.8)"/></g></g></g></g></svg>