<svg xmlns="http://www.w3.org/2000/svg" xmlns:xlink="http://www.w3.org/1999/xlink" width="599.953" height="581.511" viewBox="0 0 599.953 581.511"><defs><style>.a{fill:#f6fbfc;}.b{fill:#dbf0f2;}.c{fill:#1ba7b6;}.d{fill:#fcfcfc;}.e{fill:#8ecfd5;}.f{fill:#0f056f;}.g{fill:url(#a);}.h{fill:url(#b);}.i{fill:#fff;opacity:0.67;}.j{fill:url(#c);}.k{fill:url(#d);}.l{fill:url(#e);}.m{fill:url(#f);}.n{fill:url(#g);}.o{fill:url(#h);}.p{fill:url(#i);}.q{fill:url(#j);}.r{fill:url(#k);}.s{fill:url(#l);}.t{fill:#190e8e;}.u{fill:url(#m);}.v{fill:url(#n);}.w{fill:#0f056e;}.x{fill:url(#o);}.y{fill:url(#p);}.z{fill:url(#q);}.aa{fill:url(#r);}.ab{fill:url(#s);}.ac{fill:url(#t);}.ad{fill:url(#u);}.ae{fill:url(#v);}.af{fill:url(#w);}.ag{fill:url(#x);}.ah{fill:url(#y);}.ai{fill:url(#z);}</style><linearGradient id="a" y1="0.5" x2="1" y2="0.5" gradientUnits="objectBoundingBox"><stop offset="0" stop-color="#4f52ff"/><stop offset="1" stop-color="#4042e2"/></linearGradient><linearGradient id="b" x1="-2.758" y1="5.98" x2="-3.678" y2="7.424" gradientUnits="objectBoundingBox"><stop offset="0" stop-color="#fec562"/><stop offset="1" stop-color="#fe7062"/></linearGradient><linearGradient id="c" x1="-0.011" y1="-0.264" x2="0.834" y2="0.959" gradientUnits="objectBoundingBox"><stop offset="0" stop-color="#ff928e"/><stop offset="1" stop-color="#fec562"/></linearGradient><linearGradient id="d" x1="-0.314" y1="-0.15" x2="1.316" y2="0.958" xlink:href="#c"/><linearGradient id="e" x1="-0.669" y1="0.483" x2="0.617" y2="-0.749" gradientUnits="objectBoundingBox"><stop offset="0" stop-color="#fec562"/><stop offset="1" stop-color="#ffce78"/></linearGradient><linearGradient id="f" x1="-0.814" y1="0.144" x2="0.557" y2="-1.39" gradientUnits="objectBoundingBox"><stop offset="0" stop-color="#fed185"/><stop offset="1" stop-color="#fec562"/></linearGradient><linearGradient id="g" x1="-30.637" y1="0.5" x2="-29.637" y2="0.5" xlink:href="#a"/><linearGradient id="h" x1="-31.554" y1="0.5" x2="-30.554" y2="0.5" gradientUnits="objectBoundingBox"><stop offset="0" stop-color="#09005d"/><stop offset="1" stop-color="#1a0f91"/></linearGradient><linearGradient id="i" x1="-110.66" y1="0.5" x2="-109.66" y2="0.5" gradientUnits="objectBoundingBox"><stop offset="0" stop-color="#febbba"/><stop offset="1" stop-color="#ff928e"/></linearGradient><linearGradient id="j" x1="-91.96" y1="0.5" x2="-90.96" y2="0.5" xlink:href="#a"/><linearGradient id="k" x1="-62.323" y1="0.5" x2="-61.323" y2="0.5" xlink:href="#h"/><linearGradient id="l" x1="-103.068" y1="0.5" x2="-102.068" y2="0.5" xlink:href="#i"/><linearGradient id="m" x1="-70.203" y1="5.021" x2="-69.845" y2="4.213" gradientUnits="objectBoundingBox"><stop offset="0" stop-color="#53d8ff"/><stop offset="1" stop-color="#3840f7"/></linearGradient><linearGradient id="n" x1="-64.072" y1="0.1" x2="-66.461" y2="1.142" xlink:href="#i"/><linearGradient id="o" x1="-28.092" y1="0.5" x2="-27.092" y2="0.5" xlink:href="#i"/><linearGradient id="p" x1="-41.37" y1="-0.004" x2="-41.385" y2="1.888" xlink:href="#i"/><linearGradient id="q" x1="-52.054" y1="7.7" x2="-53.574" y2="9.038" xlink:href="#i"/><linearGradient id="r" x1="-1.261" y1="-1.522" x2="1.688" y2="1.713" xlink:href="#h"/><linearGradient id="s" x1="-149.464" y1="23.886" x2="-146.173" y2="21.53" xlink:href="#i"/><linearGradient id="t" x1="-75.246" y1="0.5" x2="-74.246" y2="0.5" xlink:href="#i"/><linearGradient id="u" x1="-2.484" y1="-0.167" x2="-3.814" y2="2.091" xlink:href="#h"/><linearGradient id="v" x1="-16.294" y1="2.162" x2="-14.988" y2="0.17" xlink:href="#h"/><linearGradient id="w" x1="-11.855" y1="-0.455" x2="-15.439" y2="4.03" xlink:href="#b"/><linearGradient id="x" x1="-3.066" y1="-0.405" x2="-3.719" y2="1.8" xlink:href="#b"/><linearGradient id="y" x1="-3.035" y1="-0.407" x2="-3.688" y2="1.798" xlink:href="#b"/><linearGradient id="z" x1="-43.916" y1="-1.222" x2="-45.609" y2="3.818" xlink:href="#i"/></defs><g transform="translate(-202.023 -120.245)"><path class="a" d="M-4521.394-841.82c-49.5,115.71-180.179,165.41-282.564,156.936-27.956-2.314-84.2-6.969-128.121-48.5-84.342-79.759-71.352-246.479,9.387-344.634,10.4-12.641,82.368-97.33,194.52-96.2,82.111.83,139.745,47.214,146.753,52.992a226.037,226.037,0,0,1,45.977,52.167C-4494.093-1004.4-4490.459-914.128-4521.394-841.82Z" transform="translate(5191.598 1294.471)"/><g transform="translate(290.978 122.027)"><g transform="translate(25.701 98.458)"><path class="b" d="M974.32,779.506C924.289,889.977,797.394,935.214,698.93,924.979c-26.885-2.794-80.977-8.417-122.447-49.316-79.639-78.544-63.753-238.895,16.014-331.822,10.272-11.967,81.32-92.1,189.342-88.738,79.088,2.46,133.672,48.311,140.307,54.02a217.806,217.806,0,0,1,43.238,51.186C1003.909,623.438,1005.585,710.473,974.32,779.506Z" transform="translate(-513.377 -455)"/><g transform="translate(0 2.715)"><g transform="translate(16.175)"><path class="c" d="M669.188,752.786s1.456-61.216-26.74-77.6-81.8-26.628-83.814-114.527c-1.177-51.461-2.45-73.96-3.3-83.771a5.794,5.794,0,0,1,6.843-6.2c26.7,5.031,113.451,25.736,131.638,84.945C715.373,625.822,669.188,752.786,669.188,752.786Z" transform="translate(-555.308 -470.581)"/><path class="d" d="M704.265,610.191c29.312,26.143,63.207,72.409,81.272,118.676,2.319,7.625,9.1,23.841,12.048,52.651,2.631,24.029,1.323,49.419-1.867,66.227a1.958,1.958,0,0,1-2.289,1.559,1.986,1.986,0,0,1-1.568-2.25,268.546,268.546,0,0,0-6.218-96.708c-10.666-39.6-34.455-77.991-59.061-110.553l-2.532-3.206c-19.063-24.482-23.077-24.662-21.294-26.369A1.115,1.115,0,0,1,704.265,610.191Z" transform="translate(-676.748 -585.632)"/></g><g transform="translate(0 162.875)"><path class="e" d="M637.847,1642.317c3.815,1.87-36.114-48.34-48.622-127.2-5.894-37.161-5.971-83.72-27.139-101.662-17.618-14.933-77.569-5.505-97.184-1.922a2.942,2.942,0,0,0-1.368,5.146c9.407,7.9,29.53,26.535,34.773,45.315,6.911,24.754,30.445,40.5,51.514,44.76s32.789,8.4,43.053,42.09S627.007,1637,637.847,1642.317Z" transform="translate(-462.481 -1405.291)"/><path class="d" d="M632.037,1501.131c25.027,1.048,51.891,12.464,65.524,33.879l1.287,2.043c2.972,4.792,19.815,38.854,29.169,67.089a.672.672,0,0,1-.426.848.684.684,0,0,1-.84-.4c-6.518-15.951-15.878-36.175-23.333-51.3-7.995-16.5-13.59-27.678-31.826-38.384a101.537,101.537,0,0,0-39.631-12.7.539.539,0,0,1,.077-1.074Z" transform="translate(-602.028 -1484.43)"/></g><g transform="translate(2.795 255.365)"><path class="c" d="M633.975,2087.215c2.264,1.193-12.751-24.65-13.9-47.419s-6.289-61.63-25.924-84.877-41.137-25.368-68.231-4.234c-22.578,17.611-36.662,26.5-44.921,28.151a3.121,3.121,0,0,0-2.094,4.551c5.3,9.756,20.275,32.164,45.423,30.587,32.078-2.012,70.953-22.865,82.8-5.469s10.327,27.129,10.691,35.373S618.994,2079.316,633.975,2087.215Z" transform="translate(-478.521 -1936.074)"/><path class="d" d="M801.845,2098.781c9.827-9.421,25.831-18.679,39.819-16.953,18.2,2.932,30.321,15.084,36.934,33.175a110.376,110.376,0,0,1,5.177,21.2.6.6,0,0,1-1.172.242c-1.112-4.423-2.214-9.053-3.862-13.843-9.592-30.9-30.068-35.062-30.865-35.694-1.548.153-10.933-6.873-33.2,5.11a98.853,98.853,0,0,0-12.006,7.7l-.021.016a.622.622,0,0,1-.8-.947Z" transform="translate(-745.347 -2056.257)"/></g></g><g transform="translate(108.97 35.133)"><path class="f" d="M1108.091,658.341a22.09,22.09,0,0,0-20.155,21.963c-.2,69.917-.526,311.08,4.032,396.439a17.154,17.154,0,0,0,16.952,16.244c44.788.482,173.619,1.368,246.756-3.31a28.885,28.885,0,0,0,27.069-28.856c-.089-73.38-1.261-279.752-11.313-374.082a23.573,23.573,0,0,0-21.622-21.007C1300.963,661.925,1171.246,652.848,1108.091,658.341Z" transform="translate(-1087.84 -656.62)"/><path class="b" d="M1184.394,797.861c-.88,59.808-3.384,258.764.988,332.2.639,10.733,8.976,19.207,19.271,19.565,42.385,1.477,151.075,4.336,213.009-2.479,11.152-1.227,19.675-10.894,19.973-22.6,1.549-61.034,5.734-246.339,1.485-318.949-.678-11.583-9.527-20.826-20.621-21.573-45.893-3.092-163.742-10.224-216.408-5.838C1192.2,779.008,1184.547,787.507,1184.394,797.861Z" transform="translate(-1166.32 -755.855)"/><path class="g" d="M1779.18,709.948a3.1,3.1,0,0,0,3.006,3.037c8.156.248,31.13.951,41.4,1.321a3.1,3.1,0,0,0,3.145-3.76,3.166,3.166,0,0,0-2.891-2.782c-6.946-.483-27.9-1.785-41.752-.986C1779.243,706.942,1779.088,710.176,1779.18,709.948Z" transform="translate(-1658.698 -697.829)"/><g transform="translate(19.381 8.506)"><g transform="translate(101.822)"><path class="h" d="M1795.775,706.786a1.841,1.841,0,0,1,.868.192l15.149,7.3a7.488,7.488,0,0,0,6.965-.245l14.6-8.344a1.841,1.841,0,0,1,.853-.253,1.9,1.9,0,0,1,1.453.633,1.773,1.773,0,0,1,.443,1.473l-2.258,16.662a7.487,7.487,0,0,0,2.386,6.548l12.447,11.306a1.848,1.848,0,0,1-.913,3.187l-16.545,3a7.487,7.487,0,0,0-5.491,4.292l-6.907,15.331a1.848,1.848,0,0,1-3.313.117l-7.968-14.807a7.487,7.487,0,0,0-5.779-3.9l-16.715-1.831a1.849,1.849,0,0,1-1.135-3.115l11.62-12.154a7.487,7.487,0,0,0,1.919-6.7l-3.424-16.463a1.772,1.772,0,0,1,.338-1.5A1.9,1.9,0,0,1,1795.775,706.786Z" transform="translate(-1783.398 -705.432)"/><path class="i" d="M2057.9,836.738a.422.422,0,0,1,.412.278,9.92,9.92,0,0,0,2.642,3.933l4.735,4.3a.423.423,0,1,1-.569.626l-4.735-4.3a10.77,10.77,0,0,1-2.868-4.27.423.423,0,0,1,.383-.568Z" transform="translate(-2009.73 -813.857)"/><path class="i" d="M1948.85,759.986a.423.423,0,0,1,.225.79l-1.954,1.117a10.733,10.733,0,0,1-9.982.351.423.423,0,0,1,.367-.762,9.886,9.886,0,0,0,9.194-.323l1.954-1.117A.42.42,0,0,1,1948.85,759.986Z" transform="translate(-1910.152 -750.479)"/><path class="i" d="M1833.93,744.875a3.4,3.4,0,0,1,1,.114.423.423,0,0,1-.219.817,2.576,2.576,0,0,0-2.447.636,2.547,2.547,0,0,0-.755,2.417l1.774,8.531a10.73,10.73,0,0,1-2.75,9.6l-6.022,6.3a2.6,2.6,0,0,0,1.6,4.387l8.661.949a10.729,10.729,0,0,1,8.282,5.582l4.129,7.673a2.6,2.6,0,0,0,4.666-.164l3.579-7.945a10.729,10.729,0,0,1,7.868-6.151l8.573-1.556a2.582,2.582,0,0,0,1.334-.671.423.423,0,0,1,.585.611,3.427,3.427,0,0,1-1.768.892l-8.573,1.556a9.883,9.883,0,0,0-7.248,5.666l-3.579,7.944a3.45,3.45,0,0,1-6.183.218l-4.129-7.673a9.884,9.884,0,0,0-7.629-5.143l-8.661-.949a3.449,3.449,0,0,1-2.118-5.813l6.021-6.3a9.883,9.883,0,0,0,2.534-8.844l-1.774-8.531a3.461,3.461,0,0,1,3.25-4.157Z" transform="translate(-1816.05 -738)"/></g><g transform="translate(27.597 28.709)"><path class="j" d="M1366.9,871.222a1.406,1.406,0,0,1,.664.147l11.582,5.578a5.725,5.725,0,0,0,5.325-.187l11.161-6.379a1.407,1.407,0,0,1,.652-.193,1.455,1.455,0,0,1,1.111.484,1.355,1.355,0,0,1,.339,1.126l-1.726,12.738a5.724,5.724,0,0,0,1.824,5.006l9.515,8.643a1.413,1.413,0,0,1-.7,2.436l-12.648,2.3a5.724,5.724,0,0,0-4.2,3.281l-5.28,11.72a1.413,1.413,0,0,1-2.533.089l-6.091-11.32a5.724,5.724,0,0,0-4.418-2.978l-12.778-1.4a1.413,1.413,0,0,1-.868-2.381l8.884-9.291a5.724,5.724,0,0,0,1.467-5.122l-2.618-12.586a1.355,1.355,0,0,1,.258-1.147A1.455,1.455,0,0,1,1366.9,871.222Z" transform="translate(-1357.439 -870.186)"/><path class="i" d="M1567.294,970.569a.323.323,0,0,1,.315.213,7.591,7.591,0,0,0,2.02,3.007l3.62,3.288a.323.323,0,0,1-.435.479l-3.62-3.288A8.235,8.235,0,0,1,1567,971a.324.324,0,0,1,.293-.434Z" transform="translate(-1530.468 -953.077)"/><path class="i" d="M1483.925,911.893a.323.323,0,0,1,.172.6l-1.494.854a8.205,8.205,0,0,1-7.631.268.323.323,0,0,1,.281-.583,7.558,7.558,0,0,0,7.029-.247l1.494-.854A.323.323,0,0,1,1483.925,911.893Z" transform="translate(-1454.341 -904.625)"/><path class="i" d="M1396.07,900.341a2.6,2.6,0,0,1,.763.087.323.323,0,0,1-.167.625,1.969,1.969,0,0,0-1.87.487,1.947,1.947,0,0,0-.577,1.848l1.357,6.522a8.2,8.2,0,0,1-2.1,7.34l-4.6,4.815a1.99,1.99,0,0,0,1.222,3.354l6.622.725a8.2,8.2,0,0,1,6.332,4.268l3.156,5.866a1.99,1.99,0,0,0,3.567-.126l2.736-6.074a8.2,8.2,0,0,1,6.016-4.7l6.554-1.189a1.976,1.976,0,0,0,1.02-.513.323.323,0,0,1,.447.467,2.622,2.622,0,0,1-1.352.682l-6.554,1.189a7.556,7.556,0,0,0-5.541,4.332l-2.736,6.074a2.637,2.637,0,0,1-4.727.167l-3.157-5.866a7.556,7.556,0,0,0-5.833-3.931l-6.622-.725a2.637,2.637,0,0,1-1.619-4.444l4.6-4.815a7.555,7.555,0,0,0,1.937-6.761l-1.356-6.522a2.646,2.646,0,0,1,2.485-3.178Z" transform="translate(-1382.401 -895.085)"/></g><g transform="translate(0 87.805)"><path class="k" d="M1204.984,1209.978a.878.878,0,0,1,.416.092l7.247,3.49a3.582,3.582,0,0,0,3.332-.117l6.984-3.992a.881.881,0,0,1,.408-.121.911.911,0,0,1,.7.3.847.847,0,0,1,.212.7l-1.08,7.971a3.581,3.581,0,0,0,1.141,3.133l5.954,5.409a.884.884,0,0,1-.437,1.524l-7.915,1.436a3.581,3.581,0,0,0-2.627,2.053l-3.3,7.334a.884.884,0,0,1-1.585.056l-3.812-7.084a3.581,3.581,0,0,0-2.765-1.864l-8-.876a.884.884,0,0,1-.543-1.49l5.559-5.814a3.581,3.581,0,0,0,.918-3.205l-1.638-7.876a.847.847,0,0,1,.162-.718A.911.911,0,0,1,1204.984,1209.978Z" transform="translate(-1199.063 -1209.33)"/><path class="i" d="M1330.384,1272.146a.2.2,0,0,1,.2.133,4.746,4.746,0,0,0,1.264,1.882l2.265,2.058a.2.2,0,0,1-.272.3l-2.265-2.058a5.157,5.157,0,0,1-1.372-2.043.2.2,0,0,1,.121-.259A.192.192,0,0,1,1330.384,1272.146Z" transform="translate(-1307.34 -1261.2)"/><path class="i" d="M1278.215,1235.428a.2.2,0,0,1,.108.378l-.935.534a5.134,5.134,0,0,1-4.775.168.2.2,0,1,1,.176-.364,4.729,4.729,0,0,0,4.4-.155l.935-.534A.2.2,0,0,1,1278.215,1235.428Z" transform="translate(-1259.702 -1230.881)"/><path class="i" d="M1223.238,1228.2a1.634,1.634,0,0,1,.477.054.2.2,0,0,1-.1.391,1.232,1.232,0,0,0-1.17.3,1.218,1.218,0,0,0-.361,1.156l.849,4.081a5.134,5.134,0,0,1-1.316,4.593l-2.881,3.013a1.245,1.245,0,0,0,.765,2.1l4.144.454a5.133,5.133,0,0,1,3.962,2.671l1.975,3.671a1.245,1.245,0,0,0,2.232-.079l1.712-3.8a5.133,5.133,0,0,1,3.764-2.943l4.1-.744a1.238,1.238,0,0,0,.638-.321.2.2,0,1,1,.28.292,1.641,1.641,0,0,1-.846.427l-4.1.744a4.727,4.727,0,0,0-3.467,2.711l-1.712,3.8a1.65,1.65,0,0,1-2.958.1l-1.975-3.671a4.728,4.728,0,0,0-3.65-2.46l-4.144-.454a1.65,1.65,0,0,1-1.013-2.781l2.881-3.013a4.728,4.728,0,0,0,1.212-4.231l-.849-4.081a1.655,1.655,0,0,1,1.555-1.989Z" transform="translate(-1214.684 -1224.911)"/></g><g transform="translate(188.608 38.435)"><path class="l" d="M2321.486,926.14a1.4,1.4,0,0,0-.659.167l-11.406,5.928a5.726,5.726,0,0,1-5.328-.025l-11.35-6.036a1.406,1.406,0,0,0-.657-.173,1.455,1.455,0,0,0-1.1.517,1.355,1.355,0,0,0-.3,1.136l2.114,12.68a5.724,5.724,0,0,1-1.671,5.059l-9.247,8.93a1.413,1.413,0,0,0,.771,2.414l12.712,1.908a5.724,5.724,0,0,1,4.3,3.152l5.635,11.554a1.413,1.413,0,0,0,2.534.012l5.743-11.5a5.724,5.724,0,0,1,4.325-3.112l12.729-1.788a1.413,1.413,0,0,0,.794-2.407l-9.163-9.016a5.726,5.726,0,0,1-1.623-5.075l2.233-12.659a1.357,1.357,0,0,0-.293-1.139A1.455,1.455,0,0,0,2321.486,926.14Z" transform="translate(-2281.447 -926.002)"/><path class="i" d="M2329.414,1025.981a.323.323,0,0,0-.309.222,7.586,7.586,0,0,1-1.927,3.067l-3.518,3.4a.323.323,0,1,0,.449.465l3.518-3.4a8.232,8.232,0,0,0,2.092-3.33.323.323,0,0,0-.206-.408A.318.318,0,0,0,2329.414,1025.981Z" transform="translate(-2316.223 -1008.56)"/><path class="i" d="M2395.352,966.065a.323.323,0,0,0-.154.609l1.519.808a8.2,8.2,0,0,0,7.635.036.323.323,0,1,0-.3-.574,7.558,7.558,0,0,1-7.033-.033l-1.519-.808A.319.319,0,0,0,2395.352,966.065Z" transform="translate(-2375.235 -959.084)"/><path class="i" d="M2346.435,951.74a2.6,2.6,0,0,0-.76.11.323.323,0,0,0,.186.619,1.969,1.969,0,0,1,1.884.429,1.947,1.947,0,0,1,.633,1.83l-1.157,6.56a8.2,8.2,0,0,0,2.325,7.273l4.749,4.672a1.99,1.99,0,0,1-1.119,3.39l-6.6.927a8.2,8.2,0,0,0-6.2,4.459l-2.976,5.96a1.991,1.991,0,0,1-3.57-.017l-2.92-5.987a8.2,8.2,0,0,0-6.156-4.517l-6.588-.989a1.974,1.974,0,0,1-1.035-.481.324.324,0,0,0-.433.48,2.623,2.623,0,0,0,1.372.641l6.588.989a7.555,7.555,0,0,1,5.671,4.161l2.92,5.987a2.637,2.637,0,0,0,4.73.022l2.976-5.96a7.556,7.556,0,0,1,5.71-4.107l6.6-.927a2.637,2.637,0,0,0,1.483-4.491L2350,968.1a7.555,7.555,0,0,1-2.142-6.7l1.157-6.56a2.646,2.646,0,0,0-2.58-3.1Z" transform="translate(-2310.472 -947.255)"/></g><g transform="translate(231.556 84.544)"><path class="m" d="M2552.975,1190.7a.878.878,0,0,0-.412.1l-7.138,3.71a3.583,3.583,0,0,1-3.334-.016l-7.1-3.777a.881.881,0,0,0-.411-.108.911.911,0,0,0-.686.324.848.848,0,0,0-.19.711l1.323,7.935a3.584,3.584,0,0,1-1.045,3.166l-5.787,5.588a.884.884,0,0,0,.483,1.51l7.955,1.194a3.582,3.582,0,0,1,2.688,1.972l3.526,7.23a.884.884,0,0,0,1.586.007l3.594-7.2a3.582,3.582,0,0,1,2.707-1.947l7.966-1.119a.884.884,0,0,0,.5-1.506l-5.734-5.642a3.582,3.582,0,0,1-1.016-3.176l1.4-7.922a.845.845,0,0,0-.184-.712A.908.908,0,0,0,2552.975,1190.7Z" transform="translate(-2527.92 -1190.614)"/><path class="i" d="M2557.936,1253.178a.2.2,0,0,0-.193.139,4.752,4.752,0,0,1-1.206,1.919l-2.2,2.126a.2.2,0,0,0,.281.291l2.2-2.126a5.154,5.154,0,0,0,1.309-2.084.2.2,0,0,0-.129-.255A.192.192,0,0,0,2557.936,1253.178Z" transform="translate(-2549.682 -1242.276)"/><path class="i" d="M2599.2,1215.684a.2.2,0,0,0-.1.381l.951.506a5.133,5.133,0,0,0,4.778.022.2.2,0,1,0-.186-.359,4.73,4.73,0,0,1-4.4-.021l-.951-.505A.2.2,0,0,0,2599.2,1215.684Z" transform="translate(-2586.61 -1211.316)"/><path class="i" d="M2568.587,1206.72a1.632,1.632,0,0,0-.475.069.2.2,0,0,0,.116.388,1.232,1.232,0,0,1,1.179.269,1.219,1.219,0,0,1,.4,1.145l-.724,4.105a5.133,5.133,0,0,0,1.455,4.551l2.971,2.924a1.245,1.245,0,0,1-.7,2.121l-4.128.58a5.134,5.134,0,0,0-3.879,2.79l-1.862,3.729a1.246,1.246,0,0,1-2.234-.01l-1.827-3.747a5.131,5.131,0,0,0-3.852-2.826l-4.122-.619a1.239,1.239,0,0,1-.648-.3.2.2,0,0,0-.271.3,1.641,1.641,0,0,0,.859.4l4.122.619a4.728,4.728,0,0,1,3.549,2.6l1.828,3.747a1.65,1.65,0,0,0,2.959.014l1.862-3.729a4.729,4.729,0,0,1,3.573-2.57l4.128-.58a1.65,1.65,0,0,0,.928-2.811l-2.971-2.924a4.729,4.729,0,0,1-1.341-4.192l.724-4.105a1.656,1.656,0,0,0-1.615-1.94Z" transform="translate(-2546.082 -1203.913)"/></g></g><g transform="translate(30.807 139.567)"><rect class="c" width="227.87" height="221.478" rx="17.694" transform="translate(0 0)"/><g transform="translate(12.53 10.681)"><rect class="b" width="105.98" height="13.546" rx="6.225" transform="translate(53.876)"/><rect class="b" width="204.536" height="12.384" rx="6.192" transform="translate(0.633 29.026)"/><rect class="b" width="130.704" height="12.384" rx="6.192" transform="translate(0 56.891)"/><rect class="b" width="198.317" height="12.384" rx="6.192" transform="translate(0.95 85.17)"/><rect class="b" width="164.334" height="12.384" rx="6.192" transform="translate(0.317 113.035)"/><rect class="b" width="204.536" height="12.384" rx="6.192" transform="translate(1.267 142.841)"/><rect class="b" width="120.844" height="12.384" rx="6.192" transform="translate(0.633 170.706)"/></g></g></g><g transform="translate(175.599 216.228)"><g transform="translate(138.085 20.5)"><g transform="translate(61.582 223.679)"><path class="n" d="M2616.915,3200.114c5.187.448,14.188,1.176,21.284,1.489,4.266.188,6.722-.23,8.136-.8,0,.159-.007.31-.013.45a1.469,1.469,0,0,1-1.395,1.387,249.276,249.276,0,0,1-27.869.028,1.045,1.045,0,0,1-.851-1.57A8.539,8.539,0,0,1,2616.915,3200.114Z" transform="translate(-2616.06 -3182.179)"/><path class="o" d="M2642.25,3151.975c-7.1-.312-16.1-1.041-21.284-1.489,5.1-6.256,21.284-10.472,21.284-10.472h4.571a19.165,19.165,0,0,1,3.564,11.166C2648.972,3151.746,2646.516,3152.163,2642.25,3151.975Z" transform="translate(-2620.111 -3132.551)"/><path class="p" d="M2733.35,3097.187l-.427,8.465a1.933,1.933,0,0,1-1.651,1.818,7.518,7.518,0,0,1-3.434-.285,2.287,2.287,0,0,1-1.538-1.758l-1.478-8.24Z" transform="translate(-2705.87 -3097.187)"/></g><g transform="translate(133.085 215.768)"><g transform="translate(2.014 7.856)"><path class="q" d="M3077.414,3195.352a4.1,4.1,0,0,0,3.694-2.731l.009.034a2.923,2.923,0,0,1-1.97,3.332,12.862,12.862,0,0,1-5.454.854,5.423,5.423,0,0,1-4.09-1.886l-.012-.017C3071.285,3195.776,3073.663,3195.875,3077.414,3195.352Z" transform="translate(-3064.079 -3175.936)"/><path class="r" d="M3040.69,3096.872h3.77c5.742-.118,9.348,11.994,10.528,16.684a4.1,4.1,0,0,1-3.693,2.731c-3.751.524-6.129.425-7.824-.414-3.1-4.082-4.64-10.061-5.38-13.55A4.757,4.757,0,0,1,3040.69,3096.872Z" transform="translate(-3037.959 -3096.872)"/></g><path class="s" d="M3034.432,3051.787l2.093,8.326a2.259,2.259,0,0,1-1.176,2.561,8.022,8.022,0,0,1-4.335,1.05,1.89,1.89,0,0,1-1.54-1.259l-3.073-8.759Z" transform="translate(-3026.401 -3051.787)"/></g><path class="c" d="M2705.481,2504.64c-2.6,2.31-11.076,2.615-11.076,2.615-30.514-73.237-43-83.641-43-83.641,4.406,27.643.71,88.841.71,88.841-5.035,2.222-11.527,0-11.527,0a471.727,471.727,0,0,0-15.582-115.836c20.624-.464,31.591-7.521,35.172-10.354C2677.374,2413.981,2705.481,2504.64,2705.481,2504.64Z" transform="translate(-2561.869 -2286.466)"/><path class="t" d="M2523.808,1900.551c3.9,19.472,2.5,54.322,1.585,70.218-.258,4.468,2.861,10.662,5.382,14.887a1.325,1.325,0,0,1-.535,1.864c-4.221,2.169-18.52,8.892-35.092,9.729a2.363,2.363,0,0,1-2.378-1.766c-12.292-45.9-26.571-75.229-26.571-75.229C2481.964,1895.081,2523.808,1900.551,2523.808,1900.551Z" transform="translate(-2430.731 -1884.974)"/><path class="u" d="M2704.533,2533.385a.977.977,0,0,0,.834-1.485,30.66,30.66,0,0,0-12.1-10.5.977.977,0,1,0-.849,1.76,29.23,29.23,0,0,1,11.279,9.76A.977.977,0,0,0,2704.533,2533.385Z" transform="translate(-2617.075 -2397.971)"/><g transform="translate(88.716 15.577)"><path class="v" d="M2865.35,2217.213c-1.254,9.071-4.959,18.964-12.37,29.474l-2.817-2.3a87,87,0,0,0,1.4-28.169C2856.138,2215.33,2861.537,2216.249,2865.35,2217.213Z" transform="translate(-2836.504 -2161.33)"/><path class="w" d="M2771.778,1926.954l4.36-24.025s29.132,22.268,24.485,55.883c-3.812-.964-9.212-1.884-13.783-.992C2785.508,1947.033,2781.53,1935.322,2771.778,1926.954Z" transform="translate(-2771.778 -1902.929)"/></g><g transform="translate(0 35.28)"><path class="w" d="M2415.624,2016l11.245,24.218c-1.818,14.621-9.672,20.942-18.141,23.367a51.406,51.406,0,0,0-3.776-15.771C2415.772,2036.644,2415.624,2016,2415.624,2016Z" transform="translate(-2380.156 -2016.002)"/><path class="x" d="M2287.449,2198.576a51.4,51.4,0,0,1,3.777,15.771c-22.594,8.767-28.572-8.235-28.572-8.235l4.176-.737C2276.259,2206.369,2282.845,2203.329,2287.449,2198.576Z" transform="translate(-2262.653 -2166.762)"/></g><path class="y" d="M2525.656,1818.919l5.428,19.957a3.883,3.883,0,0,0,5.192,2.583,78.792,78.792,0,0,0,7.824-3.574,5.232,5.232,0,0,0,1.845-7.519l-11.287-16.829Z" transform="translate(-2479.827 -1813.538)"/></g><g transform="translate(166.396)"><path class="z" d="M2457.5,1742.23c-.05.343,4.528,22.774,4.528,22.774l12.752-2.886-1.18-21.9S2458.323,1736.493,2457.5,1742.23Z" transform="translate(-2451.855 -1731.511)"/><path class="aa" d="M2444,1709.476l1.524,11.482a1.589,1.589,0,0,1,0,.44c-.129.9-.8,3.964-3.891,3.088-2.807-.795-5.38-1.479-7.158-.935a1.616,1.616,0,0,0-1.113,1.87,69.859,69.859,0,0,0,2.935,10.452,1.613,1.613,0,0,0,1.959.954,52.122,52.122,0,0,0,11.241-4.6,1.618,1.618,0,0,0,.789-1.456c-.123-2.9-.461-11.71-.176-14.18.268-2.318,3.113-3.707,4.349-4.205a1.588,1.588,0,0,0,.885-.888c.573-1.434,1.362-4.754-2.822-6.114a1.62,1.62,0,0,1-1.026-2.095c.62-1.725.881-4.358-2.355-5.808-3.29-1.474-5.746.279-7.073,1.7a1.619,1.619,0,0,1-2.062.244,1.28,1.28,0,0,0-1.457.049,1.594,1.594,0,0,1-2.257-.684,4.831,4.831,0,0,0-5.614-2.8c-5.714.979-6.361,7.311-4.854,11.022s7.643,2.3,10.72.427c2.34-1.422,5.375.069,6.7.865A1.6,1.6,0,0,1,2444,1709.476Z" transform="translate(-2425.127 -1695.892)"/><path class="ab" d="M2566.577,1796.346s-2.349-6.578.064-8.189,5.988-.775,5.2,3.991C2570.864,1798.075,2566.577,1796.346,2566.577,1796.346Z" transform="translate(-2541.083 -1771.461)"/></g><path class="ac" d="M2230.225,2212.5c-1.137.888-5.034-.967-7.418-2.249a2.743,2.743,0,0,1-1.326-3.241c.574-1.809,1.53-4.145,2.708-4.439C2226.144,2202.082,2234.911,2208.839,2230.225,2212.5Z" transform="translate(-2090.466 -2114.26)"/><g transform="translate(0 65.877)"><path class="ad" d="M2066.92,2173.816l-230.875-69.786-10.4,33.937,230.9,72.044a10.594,10.594,0,0,0,12.557-5.242c2.433-4.683,4.625-11.922,4.263-22.589A9.073,9.073,0,0,0,2066.92,2173.816Z" transform="translate(-1763.709 -2098.788)"/><path class="ae" d="M1471.911,2073.955l31.539,2.338c.175,4.317-.969,9.969-5.443,16.6l-27.017-16.01A1.578,1.578,0,0,1,1471.911,2073.955Z" transform="translate(-1470.212 -2073.95)"/><path class="af" d="M1674.26,2090.294a43.734,43.734,0,0,1-10.4,33.937L1629.719,2104c4.474-6.635,5.618-12.286,5.443-16.6Z" transform="translate(-1601.925 -2085.053)"/><path class="ag" d="M2147.01,2243.593a.668.668,0,0,0,.159-1.306l-220.862-66.279a.668.668,0,0,0-.384,1.279l220.862,66.278A.659.659,0,0,0,2147.01,2243.593Z" transform="translate(-1846.123 -2158.201)"/><path class="ah" d="M2129.131,2319.732a.668.668,0,0,0,.159-1.307l-220.862-66.279a.668.668,0,0,0-.384,1.279l220.862,66.279A.658.658,0,0,0,2129.131,2319.732Z" transform="translate(-1831.359 -2221.072)"/></g><path class="ai" d="M2767.525,2372.222l-13.15-1.072-5.7,5.25s1.348,1.862,5.56.792a60.3,60.3,0,0,1,9.982-1.333s5.815,2.622,5.886-2.284Z" transform="translate(-2525.904 -2253.485)"/></g></g></g></g></svg>