<svg xmlns="http://www.w3.org/2000/svg" xmlns:xlink="http://www.w3.org/1999/xlink" width="1920" height="504" viewBox="0 0 1920 504"><defs><style>.a{fill:url(#a);}.b{fill:#177c87;}</style><linearGradient id="a" x1="0.5" x2="0.5" y2="1" gradientUnits="objectBoundingBox"><stop offset="0" stop-color="#1ba7b6" stop-opacity="0"/><stop offset="1" stop-color="#1ba7b6" stop-opacity="0.588"/></linearGradient></defs><g transform="translate(0 -172)"><rect class="a" width="1920" height="504" transform="translate(0 172)"/><g transform="translate(879.257 325)"><g transform="translate(0 24)"><circle class="b" cx="11.094" cy="11.094" r="11.094" transform="translate(49.771 35.286)"/><path class="b" d="M151.932,111.214a34.165,34.165,0,0,0-19.107-9.091v-56.4a22.184,22.184,0,0,0-6.318-15.409A21.53,21.53,0,0,0,111.1,24H21.727A22.184,22.184,0,0,0,6.318,30.318,21.53,21.53,0,0,0,0,45.727v91.991a22.184,22.184,0,0,0,6.318,15.409,21.53,21.53,0,0,0,15.409,6.318H108.17a32.6,32.6,0,0,0,43.761-48.23ZM8.167,45.727a13.68,13.68,0,0,1,13.56-13.56H111.1a13.68,13.68,0,0,1,13.56,13.56V93.8L101.853,71.151a4.138,4.138,0,0,0-5.855,0L61.636,105.667,38.368,82.246a4.138,4.138,0,0,0-5.855,0L8.167,106.9Zm13.406,105.7v-.154a13.521,13.521,0,0,1-9.554-4.006,14.063,14.063,0,0,1-3.852-9.554V118.456L35.595,91.029,58.862,114.3a4.285,4.285,0,0,0,5.855,0L99.079,79.78l22.5,22.651-1.387.462a14.311,14.311,0,0,0-2,.616c-.616.154-1.233.462-1.849.616a4.613,4.613,0,0,0-1.233.616,14.318,14.318,0,0,0-1.541.77l-2.311,1.387c-.462.308-.77.462-1.233.77-.308.154-.462.308-.77.462a18.59,18.59,0,0,0-3.7,3.236A32.6,32.6,0,0,0,96,134.482a33.875,33.875,0,0,0,.77,6.78c.154.616.308,1.079.462,1.695.462,1.541.925,3.082,1.541,4.623v.154a28.264,28.264,0,0,0,2,3.7Zm124.35.154a24.375,24.375,0,0,1-34.054.308c-.616-.616-1.233-1.387-1.849-2-.462-.462-.925-1.079-1.387-1.541a14.632,14.632,0,0,1-1.541-2.62c-.308-.616-.616-1.079-.925-1.695a13.016,13.016,0,0,1-.77-2.62c-.154-.616-.462-1.387-.616-2a25.5,25.5,0,0,1-.462-4.931,24.733,24.733,0,0,1,7.088-17.258,24.084,24.084,0,0,1,17.258-7.088,24.733,24.733,0,0,1,17.258,7.088,23.823,23.823,0,0,1,7.088,17.258A24.644,24.644,0,0,1,145.922,151.586Z" transform="translate(0 -24)"/><path class="b" d="M318.88,277.96h-9.4v-9.4a4.16,4.16,0,0,0-8.321,0v9.4h-9.4a4.16,4.16,0,1,0,0,8.321h9.4v9.4a4.16,4.16,0,1,0,8.321,0v-9.4h9.4a4.16,4.16,0,1,0,0-8.321Z" transform="translate(-176.81 -171.793)"/></g></g></g></svg>