<svg xmlns="http://www.w3.org/2000/svg" width="93.038" height="73.911" viewBox="0 0 93.038 73.911"><defs><style>.a{fill:#1ba7b6;}</style></defs><g transform="translate(0 -9.565)"><path class="a" d="M46.547,75.521a4.225,4.225,0,0,1-6.922,3.252l-23.1-19.14H4.225A4.223,4.223,0,0,1,0,55.409V38.576A4.226,4.226,0,0,1,4.225,34.35h12.3l23.1-19.14a4.227,4.227,0,0,1,6.922,3.254V75.521Zm16.237-6.6c-.1.007-.2.011-.3.011a4.22,4.22,0,0,1-2.987-1.237l-.565-.567a4.222,4.222,0,0,1-.408-5.5,24.568,24.568,0,0,0-.65-30.106,4.222,4.222,0,0,1,.291-5.65l.564-.565a4.133,4.133,0,0,1,3.2-1.231,4.231,4.231,0,0,1,3.061,1.545,33.837,33.837,0,0,1,.881,41.62A4.228,4.228,0,0,1,62.784,68.919ZM80.252,81.976a4.229,4.229,0,0,1-3.052,1.5c-.058,0-.117,0-.177,0a4.222,4.222,0,0,1-2.988-1.237l-.555-.555a4.226,4.226,0,0,1-.246-5.707,45.025,45.025,0,0,0-.746-58.829,4.226,4.226,0,0,1,.17-5.783l.554-.555a4.113,4.113,0,0,1,3.115-1.242,4.225,4.225,0,0,1,3.036,1.417,54.249,54.249,0,0,1,.889,70.992Z" transform="translate(0 0)"/></g></svg>