<svg xmlns="http://www.w3.org/2000/svg" width="217" height="117" viewBox="0 0 217 117"><defs><style>.a{fill:#e9e9e9;}.b{fill:#1ba7b6;}</style></defs><g transform="translate(-256 -2762)"><rect class="a" width="217" height="117" rx="10" transform="translate(256 2762)"/><g transform="translate(314.555 2797)"><g transform="translate(54.843 31.678)"><g transform="translate(0)"><path class="b" d="M320.808,341.333a7.919,7.919,0,1,0,7.919,7.919A7.928,7.928,0,0,0,320.808,341.333Zm0,14.079a6.16,6.16,0,1,1,6.16-6.16A6.166,6.166,0,0,1,320.808,355.412Z" transform="translate(-312.889 -341.333)"/></g></g><g transform="translate(58.363 35.198)"><path class="b" d="M358.734,382.78h-2.64v-2.64a.88.88,0,0,0-1.76,0v2.64h-2.64a.88.88,0,1,0,0,1.76h2.64v2.64a.88.88,0,1,0,1.76,0v-2.64h2.64a.88.88,0,1,0,0-1.76Z" transform="translate(-350.814 -379.26)"/></g><g transform="translate(28.445)"><g transform="translate(0)"><path class="b" d="M65.13,11.954,52.88.244A.88.88,0,0,0,52.272,0H29.325a.88.88,0,0,0-.88.88V46.637a.88.88,0,0,0,.88.88H53.083a.88.88,0,1,0,0-1.76H30.2v-44H51.323V13.2a.88.88,0,0,0,.88.88H63.643V29.038a.88.88,0,0,0,1.76,0V12.59A.88.88,0,0,0,65.13,11.954Zm-12.047.365V2.873l9.882,9.447Z" transform="translate(-28.445)"/></g></g><g transform="translate(41.644 16.719)"><path class="b" d="M183.487,188.226l-11.439-7.919a.88.88,0,0,0-1.381.724v15.839a.88.88,0,0,0,1.381.723l11.439-7.919a.88.88,0,0,0,0-1.447Zm-11.06,6.964v-12.48l9.013,6.24Z" transform="translate(-170.667 -180.15)"/></g></g></g></svg>