<svg xmlns="http://www.w3.org/2000/svg" width="79.748" height="55.836" viewBox="0 0 79.748 55.836"><defs><style>.a{fill:rgba(255,255,255,0.64);}</style></defs><path class="a" d="M78.106,2.655a9.991,9.991,0,0,0-7.029-7.03c-6.241-1.707-31.2-1.707-31.2-1.707s-24.962,0-31.2,1.643A10.193,10.193,0,0,0,1.643,2.655C0,8.9,0,21.836,0,21.836S0,34.843,1.643,41.017a9.992,9.992,0,0,0,7.029,7.029c6.306,1.708,31.2,1.708,31.2,1.708s24.962,0,31.2-1.643a9.991,9.991,0,0,0,7.03-7.029C79.748,34.843,79.748,21.9,79.748,21.9S79.814,8.9,78.106,2.655ZM31.926,33.792V9.881L52.684,21.836Zm0,0" transform="translate(-0.001 6.082)"/></svg>